<?xml version="1.0" encoding="utf-8" standalone="no"?>
<!DOCTYPE svg PUBLIC "-//W3C//DTD SVG 1.1//EN"
  "http://www.w3.org/Graphics/SVG/1.1/DTD/svg11.dtd">
<!-- Created with matplotlib (https://matplotlib.org/) -->
<svg height="288pt" version="1.1" viewBox="0 0 432 288" width="432pt" xmlns="http://www.w3.org/2000/svg" xmlns:xlink="http://www.w3.org/1999/xlink">
 <metadata>
  <rdf:RDF xmlns:cc="http://creativecommons.org/ns#" xmlns:dc="http://purl.org/dc/elements/1.1/" xmlns:rdf="http://www.w3.org/1999/02/22-rdf-syntax-ns#">
   <cc:Work>
    <dc:type rdf:resource="http://purl.org/dc/dcmitype/StillImage"/>
    <dc:date>2022-12-21T16:34:46.558587</dc:date>
    <dc:format>image/svg+xml</dc:format>
    <dc:creator>
     <cc:Agent>
      <dc:title>Matplotlib v3.3.4, https://matplotlib.org/</dc:title>
     </cc:Agent>
    </dc:creator>
   </cc:Work>
  </rdf:RDF>
 </metadata>
 <defs>
  <style type="text/css">*{stroke-linecap:butt;stroke-linejoin:round;}</style>
 </defs>
 <g id="figure_1">
  <g id="patch_1">
   <path d="M 0 288 
L 432 288 
L 432 0 
L 0 0 
z
" style="fill:#ffffff;"/>
  </g>
  <g id="axes_1">
   <g id="patch_2">
    <path d="M 100.725 220.9 
L 410.4 220.9 
L 410.4 21.6 
L 100.725 21.6 
z
" style="fill:#ffffff;"/>
   </g>
   <g id="matplotlib.axis_1">
    <g id="xtick_1">
     <g id="line2d_1">
      <defs>
       <path d="M 0 0 
L 0 7 
" id="m3b9d09784a" style="stroke:#262626;stroke-width:2;"/>
      </defs>
      <g>
       <use style="fill:#262626;stroke:#262626;stroke-width:2;" x="100.725" xlink:href="#m3b9d09784a" y="220.9"/>
      </g>
     </g>
     <g id="text_1">
      <!-- 0.00 -->
      <g style="fill:#262626;" transform="translate(87.102344 241.545625)scale(0.14 -0.14)">
       <defs>
        <path d="M 51.703125 34.421875 
Q 51.703125 17.1875 45.625 8.09375 
Q 39.546875 -0.984375 27.6875 -0.984375 
Q 15.828125 -0.984375 9.859375 8.046875 
Q 3.90625 17.09375 3.90625 34.421875 
Q 3.90625 52.15625 9.6875 60.984375 
Q 15.484375 69.828125 27.984375 69.828125 
Q 40.140625 69.828125 45.921875 60.890625 
Q 51.703125 51.953125 51.703125 34.421875 
z
M 42.78125 34.421875 
Q 42.78125 49.3125 39.328125 56 
Q 35.890625 62.703125 27.984375 62.703125 
Q 19.875 62.703125 16.328125 56.109375 
Q 12.796875 49.515625 12.796875 34.421875 
Q 12.796875 19.78125 16.375 12.984375 
Q 19.96875 6.203125 27.78125 6.203125 
Q 35.546875 6.203125 39.15625 13.125 
Q 42.78125 20.0625 42.78125 34.421875 
z
" id="LiberationSans-48"/>
        <path d="M 9.125 0 
L 9.125 10.6875 
L 18.65625 10.6875 
L 18.65625 0 
z
" id="LiberationSans-46"/>
       </defs>
       <use xlink:href="#LiberationSans-48"/>
       <use x="55.615234" xlink:href="#LiberationSans-46"/>
       <use x="83.398438" xlink:href="#LiberationSans-48"/>
       <use x="139.013672" xlink:href="#LiberationSans-48"/>
      </g>
     </g>
    </g>
    <g id="xtick_2">
     <g id="line2d_2">
      <g>
       <use style="fill:#262626;stroke:#262626;stroke-width:2;" x="185.468446" xlink:href="#m3b9d09784a" y="220.9"/>
      </g>
     </g>
     <g id="text_2">
      <!-- 0.02 -->
      <g style="fill:#262626;" transform="translate(171.845789 241.545625)scale(0.14 -0.14)">
       <defs>
        <path d="M 5.03125 0 
L 5.03125 6.203125 
Q 7.515625 11.921875 11.109375 16.28125 
Q 14.703125 20.65625 18.65625 24.1875 
Q 22.609375 27.734375 26.484375 30.765625 
Q 30.375 33.796875 33.5 36.8125 
Q 36.625 39.84375 38.546875 43.15625 
Q 40.484375 46.484375 40.484375 50.6875 
Q 40.484375 56.34375 37.15625 59.46875 
Q 33.84375 62.59375 27.9375 62.59375 
Q 22.3125 62.59375 18.671875 59.546875 
Q 15.046875 56.5 14.40625 50.984375 
L 5.421875 51.8125 
Q 6.390625 60.0625 12.421875 64.9375 
Q 18.453125 69.828125 27.9375 69.828125 
Q 38.328125 69.828125 43.921875 64.921875 
Q 49.515625 60.015625 49.515625 50.984375 
Q 49.515625 46.96875 47.671875 43.015625 
Q 45.84375 39.0625 42.234375 35.109375 
Q 38.625 31.15625 28.421875 22.859375 
Q 22.796875 18.265625 19.46875 14.578125 
Q 16.15625 10.890625 14.703125 7.46875 
L 50.59375 7.46875 
L 50.59375 0 
z
" id="LiberationSans-50"/>
       </defs>
       <use xlink:href="#LiberationSans-48"/>
       <use x="55.615234" xlink:href="#LiberationSans-46"/>
       <use x="83.398438" xlink:href="#LiberationSans-48"/>
       <use x="139.013672" xlink:href="#LiberationSans-50"/>
      </g>
     </g>
    </g>
    <g id="xtick_3">
     <g id="line2d_3">
      <g>
       <use style="fill:#262626;stroke:#262626;stroke-width:2;" x="270.211891" xlink:href="#m3b9d09784a" y="220.9"/>
      </g>
     </g>
     <g id="text_3">
      <!-- 0.04 -->
      <g style="fill:#262626;" transform="translate(256.589235 241.545625)scale(0.14 -0.14)">
       <defs>
        <path d="M 43.015625 15.578125 
L 43.015625 0 
L 34.71875 0 
L 34.71875 15.578125 
L 2.296875 15.578125 
L 2.296875 22.40625 
L 33.796875 68.796875 
L 43.015625 68.796875 
L 43.015625 22.515625 
L 52.6875 22.515625 
L 52.6875 15.578125 
z
M 34.71875 58.890625 
Q 34.625 58.59375 33.34375 56.296875 
Q 32.078125 54 31.453125 53.078125 
L 13.8125 27.09375 
L 11.1875 23.484375 
L 10.40625 22.515625 
L 34.71875 22.515625 
z
" id="LiberationSans-52"/>
       </defs>
       <use xlink:href="#LiberationSans-48"/>
       <use x="55.615234" xlink:href="#LiberationSans-46"/>
       <use x="83.398438" xlink:href="#LiberationSans-48"/>
       <use x="139.013672" xlink:href="#LiberationSans-52"/>
      </g>
     </g>
    </g>
    <g id="xtick_4">
     <g id="line2d_4">
      <g>
       <use style="fill:#262626;stroke:#262626;stroke-width:2;" x="354.955337" xlink:href="#m3b9d09784a" y="220.9"/>
      </g>
     </g>
     <g id="text_4">
      <!-- 0.06 -->
      <g style="fill:#262626;" transform="translate(341.332681 241.545625)scale(0.14 -0.14)">
       <defs>
        <path d="M 51.21875 22.515625 
Q 51.21875 11.625 45.3125 5.3125 
Q 39.40625 -0.984375 29 -0.984375 
Q 17.390625 -0.984375 11.234375 7.65625 
Q 5.078125 16.3125 5.078125 32.8125 
Q 5.078125 50.6875 11.46875 60.25 
Q 17.875 69.828125 29.6875 69.828125 
Q 45.265625 69.828125 49.3125 55.8125 
L 40.921875 54.296875 
Q 38.328125 62.703125 29.59375 62.703125 
Q 22.078125 62.703125 17.9375 55.6875 
Q 13.8125 48.6875 13.8125 35.40625 
Q 16.21875 39.84375 20.5625 42.15625 
Q 24.90625 44.484375 30.515625 44.484375 
Q 40.046875 44.484375 45.625 38.515625 
Q 51.21875 32.5625 51.21875 22.515625 
z
M 42.28125 22.125 
Q 42.28125 29.59375 38.625 33.640625 
Q 34.96875 37.703125 28.421875 37.703125 
Q 22.265625 37.703125 18.484375 34.109375 
Q 14.703125 30.515625 14.703125 24.21875 
Q 14.703125 16.265625 18.625 11.1875 
Q 22.5625 6.109375 28.71875 6.109375 
Q 35.0625 6.109375 38.671875 10.375 
Q 42.28125 14.65625 42.28125 22.125 
z
" id="LiberationSans-54"/>
       </defs>
       <use xlink:href="#LiberationSans-48"/>
       <use x="55.615234" xlink:href="#LiberationSans-46"/>
       <use x="83.398438" xlink:href="#LiberationSans-48"/>
       <use x="139.013672" xlink:href="#LiberationSans-54"/>
      </g>
     </g>
    </g>
    <g id="text_5">
     <!-- Feature Importance -->
     <g style="fill:#262626;" transform="translate(177.030469 261.495)scale(0.18 -0.18)">
      <defs>
       <path d="M 17.53125 61.1875 
L 17.53125 35.59375 
L 55.90625 35.59375 
L 55.90625 27.875 
L 17.53125 27.875 
L 17.53125 0 
L 8.203125 0 
L 8.203125 68.796875 
L 57.078125 68.796875 
L 57.078125 61.1875 
z
" id="LiberationSans-70"/>
       <path d="M 13.484375 24.5625 
Q 13.484375 15.484375 17.234375 10.546875 
Q 21 5.609375 28.21875 5.609375 
Q 33.9375 5.609375 37.375 7.90625 
Q 40.828125 10.203125 42.046875 13.71875 
L 49.75 11.53125 
Q 45.015625 -0.984375 28.21875 -0.984375 
Q 16.5 -0.984375 10.375 6 
Q 4.25 12.984375 4.25 26.765625 
Q 4.25 39.84375 10.375 46.828125 
Q 16.5 53.8125 27.875 53.8125 
Q 51.171875 53.8125 51.171875 25.734375 
L 51.171875 24.5625 
z
M 42.09375 31.296875 
Q 41.359375 39.65625 37.84375 43.484375 
Q 34.328125 47.3125 27.734375 47.3125 
Q 21.34375 47.3125 17.609375 43.03125 
Q 13.875 38.765625 13.578125 31.296875 
z
" id="LiberationSans-101"/>
       <path d="M 20.21875 -0.984375 
Q 12.25 -0.984375 8.25 3.21875 
Q 4.25 7.421875 4.25 14.75 
Q 4.25 22.953125 9.640625 27.34375 
Q 15.046875 31.734375 27.046875 32.03125 
L 38.921875 32.234375 
L 38.921875 35.109375 
Q 38.921875 41.546875 36.1875 44.328125 
Q 33.453125 47.125 27.59375 47.125 
Q 21.6875 47.125 19 45.109375 
Q 16.3125 43.109375 15.765625 38.71875 
L 6.59375 39.546875 
Q 8.84375 53.8125 27.78125 53.8125 
Q 37.75 53.8125 42.765625 49.234375 
Q 47.796875 44.671875 47.796875 36.03125 
L 47.796875 13.28125 
Q 47.796875 9.375 48.828125 7.390625 
Q 49.859375 5.421875 52.734375 5.421875 
Q 54 5.421875 55.609375 5.765625 
L 55.609375 0.296875 
Q 52.296875 -0.484375 48.828125 -0.484375 
Q 43.953125 -0.484375 41.71875 2.078125 
Q 39.5 4.640625 39.203125 10.109375 
L 38.921875 10.109375 
Q 35.546875 4.046875 31.078125 1.53125 
Q 26.609375 -0.984375 20.21875 -0.984375 
z
M 22.21875 5.609375 
Q 27.046875 5.609375 30.8125 7.8125 
Q 34.578125 10.015625 36.75 13.84375 
Q 38.921875 17.671875 38.921875 21.734375 
L 38.921875 26.078125 
L 29.296875 25.875 
Q 23.09375 25.78125 19.890625 24.609375 
Q 16.703125 23.4375 14.984375 21 
Q 13.28125 18.5625 13.28125 14.59375 
Q 13.28125 10.296875 15.59375 7.953125 
Q 17.921875 5.609375 22.21875 5.609375 
z
" id="LiberationSans-97"/>
       <path d="M 27.046875 0.390625 
Q 22.703125 -0.78125 18.171875 -0.78125 
Q 7.625 -0.78125 7.625 11.1875 
L 7.625 46.4375 
L 1.515625 46.4375 
L 1.515625 52.828125 
L 7.953125 52.828125 
L 10.546875 64.65625 
L 16.40625 64.65625 
L 16.40625 52.828125 
L 26.171875 52.828125 
L 26.171875 46.4375 
L 16.40625 46.4375 
L 16.40625 13.09375 
Q 16.40625 9.28125 17.640625 7.734375 
Q 18.890625 6.203125 21.96875 6.203125 
Q 23.734375 6.203125 27.046875 6.890625 
z
" id="LiberationSans-116"/>
       <path d="M 15.328125 52.828125 
L 15.328125 19.34375 
Q 15.328125 14.109375 16.359375 11.21875 
Q 17.390625 8.34375 19.625 7.078125 
Q 21.875 5.8125 26.21875 5.8125 
Q 32.5625 5.8125 36.21875 10.15625 
Q 39.890625 14.5 39.890625 22.21875 
L 39.890625 52.828125 
L 48.6875 52.828125 
L 48.6875 11.28125 
Q 48.6875 2.046875 48.96875 0 
L 40.671875 0 
Q 40.625 0.25 40.578125 1.3125 
Q 40.53125 2.390625 40.453125 3.78125 
Q 40.375 5.171875 40.28125 9.03125 
L 40.140625 9.03125 
Q 37.109375 3.5625 33.125 1.28125 
Q 29.15625 -0.984375 23.25 -0.984375 
Q 14.546875 -0.984375 10.515625 3.34375 
Q 6.5 7.671875 6.5 17.625 
L 6.5 52.828125 
z
" id="LiberationSans-117"/>
       <path d="M 6.9375 0 
L 6.9375 40.53125 
Q 6.9375 46.09375 6.640625 52.828125 
L 14.9375 52.828125 
Q 15.328125 43.84375 15.328125 42.046875 
L 15.53125 42.046875 
Q 17.625 48.828125 20.359375 51.3125 
Q 23.09375 53.8125 28.078125 53.8125 
Q 29.828125 53.8125 31.640625 53.328125 
L 31.640625 45.265625 
Q 29.890625 45.75 26.953125 45.75 
Q 21.484375 45.75 18.59375 41.03125 
Q 15.71875 36.328125 15.71875 27.546875 
L 15.71875 0 
z
" id="LiberationSans-114"/>
       <path id="LiberationSans-32"/>
       <path d="M 9.234375 0 
L 9.234375 68.796875 
L 18.5625 68.796875 
L 18.5625 0 
z
" id="LiberationSans-73"/>
       <path d="M 37.5 0 
L 37.5 33.5 
Q 37.5 41.15625 35.390625 44.078125 
Q 33.296875 47.015625 27.828125 47.015625 
Q 22.21875 47.015625 18.9375 42.71875 
Q 15.671875 38.421875 15.671875 30.609375 
L 15.671875 0 
L 6.9375 0 
L 6.9375 41.546875 
Q 6.9375 50.78125 6.640625 52.828125 
L 14.9375 52.828125 
Q 14.984375 52.59375 15.03125 51.515625 
Q 15.09375 50.4375 15.15625 49.046875 
Q 15.234375 47.65625 15.328125 43.796875 
L 15.484375 43.796875 
Q 18.3125 49.421875 21.96875 51.609375 
Q 25.640625 53.8125 30.90625 53.8125 
Q 36.921875 53.8125 40.40625 51.421875 
Q 43.890625 49.03125 45.265625 43.796875 
L 45.40625 43.796875 
Q 48.140625 49.125 52.015625 51.46875 
Q 55.90625 53.8125 61.421875 53.8125 
Q 69.4375 53.8125 73.0625 49.46875 
Q 76.703125 45.125 76.703125 35.203125 
L 76.703125 0 
L 68.015625 0 
L 68.015625 33.5 
Q 68.015625 41.15625 65.90625 44.078125 
Q 63.8125 47.015625 58.34375 47.015625 
Q 52.59375 47.015625 49.390625 42.75 
Q 46.1875 38.484375 46.1875 30.609375 
L 46.1875 0 
z
" id="LiberationSans-109"/>
       <path d="M 51.421875 26.65625 
Q 51.421875 -0.984375 31.984375 -0.984375 
Q 19.78125 -0.984375 15.578125 8.203125 
L 15.328125 8.203125 
Q 15.53125 7.8125 15.53125 -0.09375 
L 15.53125 -20.75 
L 6.734375 -20.75 
L 6.734375 42.046875 
Q 6.734375 50.203125 6.453125 52.828125 
L 14.9375 52.828125 
Q 14.984375 52.640625 15.078125 51.4375 
Q 15.1875 50.25 15.3125 47.75 
Q 15.4375 45.265625 15.4375 44.34375 
L 15.625 44.34375 
Q 17.96875 49.21875 21.828125 51.484375 
Q 25.6875 53.765625 31.984375 53.765625 
Q 41.75 53.765625 46.578125 47.21875 
Q 51.421875 40.671875 51.421875 26.65625 
z
M 42.1875 26.46875 
Q 42.1875 37.5 39.203125 42.234375 
Q 36.234375 46.96875 29.734375 46.96875 
Q 24.515625 46.96875 21.5625 44.765625 
Q 18.609375 42.578125 17.0625 37.90625 
Q 15.53125 33.25 15.53125 25.78125 
Q 15.53125 15.375 18.84375 10.4375 
Q 22.171875 5.515625 29.640625 5.515625 
Q 36.1875 5.515625 39.1875 10.328125 
Q 42.1875 15.140625 42.1875 26.46875 
z
" id="LiberationSans-112"/>
       <path d="M 51.421875 26.46875 
Q 51.421875 12.59375 45.3125 5.796875 
Q 39.203125 -0.984375 27.59375 -0.984375 
Q 16.015625 -0.984375 10.109375 6.078125 
Q 4.203125 13.140625 4.203125 26.46875 
Q 4.203125 53.8125 27.875 53.8125 
Q 39.984375 53.8125 45.703125 47.140625 
Q 51.421875 40.484375 51.421875 26.46875 
z
M 42.1875 26.46875 
Q 42.1875 37.40625 38.9375 42.359375 
Q 35.6875 47.3125 28.03125 47.3125 
Q 20.3125 47.3125 16.859375 42.25 
Q 13.421875 37.203125 13.421875 26.46875 
Q 13.421875 16.015625 16.8125 10.765625 
Q 20.21875 5.515625 27.484375 5.515625 
Q 35.40625 5.515625 38.796875 10.59375 
Q 42.1875 15.671875 42.1875 26.46875 
z
" id="LiberationSans-111"/>
       <path d="M 40.28125 0 
L 40.28125 33.5 
Q 40.28125 38.71875 39.25 41.59375 
Q 38.234375 44.484375 35.984375 45.75 
Q 33.734375 47.015625 29.390625 47.015625 
Q 23.046875 47.015625 19.375 42.671875 
Q 15.71875 38.328125 15.71875 30.609375 
L 15.71875 0 
L 6.9375 0 
L 6.9375 41.546875 
Q 6.9375 50.78125 6.640625 52.828125 
L 14.9375 52.828125 
Q 14.984375 52.59375 15.03125 51.515625 
Q 15.09375 50.4375 15.15625 49.046875 
Q 15.234375 47.65625 15.328125 43.796875 
L 15.484375 43.796875 
Q 18.5 49.265625 22.484375 51.53125 
Q 26.46875 53.8125 32.375 53.8125 
Q 41.0625 53.8125 45.09375 49.484375 
Q 49.125 45.171875 49.125 35.203125 
L 49.125 0 
z
" id="LiberationSans-110"/>
       <path d="M 13.421875 26.65625 
Q 13.421875 16.109375 16.734375 11.03125 
Q 20.0625 5.953125 26.765625 5.953125 
Q 31.453125 5.953125 34.59375 8.484375 
Q 37.75 11.03125 38.484375 16.3125 
L 47.359375 15.71875 
Q 46.34375 8.109375 40.875 3.5625 
Q 35.40625 -0.984375 27 -0.984375 
Q 15.921875 -0.984375 10.078125 6.015625 
Q 4.25 13.03125 4.25 26.46875 
Q 4.25 39.796875 10.109375 46.796875 
Q 15.96875 53.8125 26.90625 53.8125 
Q 35.015625 53.8125 40.359375 49.609375 
Q 45.703125 45.40625 47.078125 38.03125 
L 38.03125 37.359375 
Q 37.359375 41.75 34.5625 44.328125 
Q 31.78125 46.921875 26.65625 46.921875 
Q 19.671875 46.921875 16.546875 42.28125 
Q 13.421875 37.640625 13.421875 26.65625 
z
" id="LiberationSans-99"/>
      </defs>
      <use xlink:href="#LiberationSans-70"/>
      <use x="61.083984" xlink:href="#LiberationSans-101"/>
      <use x="116.699219" xlink:href="#LiberationSans-97"/>
      <use x="172.314453" xlink:href="#LiberationSans-116"/>
      <use x="200.097656" xlink:href="#LiberationSans-117"/>
      <use x="255.712891" xlink:href="#LiberationSans-114"/>
      <use x="289.013672" xlink:href="#LiberationSans-101"/>
      <use x="344.628906" xlink:href="#LiberationSans-32"/>
      <use x="372.412109" xlink:href="#LiberationSans-73"/>
      <use x="400.195312" xlink:href="#LiberationSans-109"/>
      <use x="483.496094" xlink:href="#LiberationSans-112"/>
      <use x="539.111328" xlink:href="#LiberationSans-111"/>
      <use x="594.726562" xlink:href="#LiberationSans-114"/>
      <use x="628.027344" xlink:href="#LiberationSans-116"/>
      <use x="655.810547" xlink:href="#LiberationSans-97"/>
      <use x="711.425781" xlink:href="#LiberationSans-110"/>
      <use x="767.041016" xlink:href="#LiberationSans-99"/>
      <use x="817.041016" xlink:href="#LiberationSans-101"/>
     </g>
    </g>
   </g>
   <g id="matplotlib.axis_2">
    <g id="ytick_1">
     <g id="line2d_5">
      <defs>
       <path d="M 0 0 
L -7 0 
" id="m2d37d55c4b" style="stroke:#262626;stroke-width:2;"/>
      </defs>
      <g>
       <use style="fill:#262626;stroke:#262626;stroke-width:2;" x="100.725" xlink:href="#m2d37d55c4b" y="38.054267"/>
      </g>
     </g>
     <g id="text_6">
      <!-- AATSC3c -->
      <g style="fill:#262626;" transform="translate(29.795313 43.12708)scale(0.14 -0.14)">
       <defs>
        <path d="M 56.984375 0 
L 49.125 20.125 
L 17.78125 20.125 
L 9.859375 0 
L 0.203125 0 
L 28.265625 68.796875 
L 38.875 68.796875 
L 66.5 0 
z
M 33.453125 61.765625 
L 33.015625 60.40625 
Q 31.78125 56.34375 29.390625 50 
L 20.609375 27.390625 
L 46.34375 27.390625 
L 37.5 50.09375 
Q 36.140625 53.46875 34.765625 57.71875 
z
" id="LiberationSans-65"/>
        <path d="M 35.15625 61.1875 
L 35.15625 0 
L 25.875 0 
L 25.875 61.1875 
L 2.25 61.1875 
L 2.25 68.796875 
L 58.796875 68.796875 
L 58.796875 61.1875 
z
" id="LiberationSans-84"/>
        <path d="M 62.109375 19 
Q 62.109375 9.46875 54.65625 4.234375 
Q 47.21875 -0.984375 33.6875 -0.984375 
Q 8.546875 -0.984375 4.546875 16.5 
L 13.578125 18.3125 
Q 15.140625 12.109375 20.21875 9.203125 
Q 25.296875 6.296875 34.03125 6.296875 
Q 43.0625 6.296875 47.96875 9.390625 
Q 52.875 12.5 52.875 18.5 
Q 52.875 21.875 51.34375 23.96875 
Q 49.8125 26.078125 47.015625 27.4375 
Q 44.234375 28.8125 40.375 29.734375 
Q 36.53125 30.671875 31.84375 31.734375 
Q 23.6875 33.546875 19.453125 35.34375 
Q 15.234375 37.15625 12.796875 39.375 
Q 10.359375 41.609375 9.0625 44.578125 
Q 7.765625 47.5625 7.765625 51.421875 
Q 7.765625 60.25 14.53125 65.03125 
Q 21.296875 69.828125 33.890625 69.828125 
Q 45.609375 69.828125 51.8125 66.234375 
Q 58.015625 62.640625 60.5 54 
L 51.3125 52.390625 
Q 49.8125 57.859375 45.5625 60.328125 
Q 41.3125 62.796875 33.796875 62.796875 
Q 25.53125 62.796875 21.1875 60.0625 
Q 16.84375 57.328125 16.84375 51.90625 
Q 16.84375 48.734375 18.53125 46.65625 
Q 20.21875 44.578125 23.390625 43.140625 
Q 26.5625 41.703125 36.03125 39.59375 
Q 39.203125 38.875 42.359375 38.109375 
Q 45.515625 37.359375 48.390625 36.296875 
Q 51.265625 35.25 53.78125 33.828125 
Q 56.296875 32.421875 58.15625 30.375 
Q 60.015625 28.328125 61.0625 25.53125 
Q 62.109375 22.75 62.109375 19 
z
" id="LiberationSans-83"/>
        <path d="M 38.671875 62.203125 
Q 27.25 62.203125 20.890625 54.859375 
Q 14.546875 47.515625 14.546875 34.71875 
Q 14.546875 22.078125 21.15625 14.375 
Q 27.78125 6.6875 39.0625 6.6875 
Q 53.515625 6.6875 60.796875 21 
L 68.40625 17.1875 
Q 64.15625 8.296875 56.46875 3.65625 
Q 48.78125 -0.984375 38.625 -0.984375 
Q 28.21875 -0.984375 20.625 3.34375 
Q 13.03125 7.671875 9.046875 15.703125 
Q 5.078125 23.734375 5.078125 34.71875 
Q 5.078125 51.171875 13.96875 60.5 
Q 22.859375 69.828125 38.578125 69.828125 
Q 49.5625 69.828125 56.9375 65.53125 
Q 64.3125 61.234375 67.78125 52.78125 
L 58.9375 49.859375 
Q 56.546875 55.859375 51.25 59.03125 
Q 45.953125 62.203125 38.671875 62.203125 
z
" id="LiberationSans-67"/>
        <path d="M 51.21875 19 
Q 51.21875 9.46875 45.15625 4.234375 
Q 39.109375 -0.984375 27.875 -0.984375 
Q 17.4375 -0.984375 11.203125 3.734375 
Q 4.984375 8.453125 3.8125 17.671875 
L 12.890625 18.5 
Q 14.65625 6.296875 27.875 6.296875 
Q 34.515625 6.296875 38.296875 9.5625 
Q 42.09375 12.84375 42.09375 19.28125 
Q 42.09375 24.90625 37.765625 28.046875 
Q 33.453125 31.203125 25.296875 31.203125 
L 20.3125 31.203125 
L 20.3125 38.8125 
L 25.09375 38.8125 
Q 32.328125 38.8125 36.296875 41.96875 
Q 40.28125 45.125 40.28125 50.6875 
Q 40.28125 56.203125 37.03125 59.390625 
Q 33.796875 62.59375 27.390625 62.59375 
Q 21.578125 62.59375 17.984375 59.609375 
Q 14.40625 56.640625 13.8125 51.21875 
L 4.984375 51.90625 
Q 5.953125 60.359375 11.984375 65.09375 
Q 18.015625 69.828125 27.484375 69.828125 
Q 37.84375 69.828125 43.578125 65.015625 
Q 49.3125 60.203125 49.3125 51.609375 
Q 49.3125 45.015625 45.625 40.890625 
Q 41.9375 36.765625 34.90625 35.296875 
L 34.90625 35.109375 
Q 42.625 34.28125 46.921875 29.9375 
Q 51.21875 25.59375 51.21875 19 
z
" id="LiberationSans-51"/>
       </defs>
       <use xlink:href="#LiberationSans-65"/>
       <use x="66.699219" xlink:href="#LiberationSans-65"/>
       <use x="126.023438" xlink:href="#LiberationSans-84"/>
       <use x="187.107422" xlink:href="#LiberationSans-83"/>
       <use x="253.806641" xlink:href="#LiberationSans-67"/>
       <use x="326.023438" xlink:href="#LiberationSans-51"/>
       <use x="381.638672" xlink:href="#LiberationSans-99"/>
      </g>
     </g>
    </g>
    <g id="ytick_2">
     <g id="line2d_6">
      <g>
       <use style="fill:#262626;stroke:#262626;stroke-width:2;" x="100.725" xlink:href="#m2d37d55c4b" y="56.542208"/>
      </g>
     </g>
     <g id="text_7">
      <!-- MATS1p -->
      <g style="fill:#262626;" transform="translate(36.7975 61.61502)scale(0.14 -0.14)">
       <defs>
        <path d="M 66.703125 0 
L 66.703125 45.90625 
Q 66.703125 53.515625 67.140625 60.546875 
Q 64.75 51.8125 62.84375 46.875 
L 45.0625 0 
L 38.53125 0 
L 20.515625 46.875 
L 17.78125 55.171875 
L 16.15625 60.546875 
L 16.3125 55.125 
L 16.5 45.90625 
L 16.5 0 
L 8.203125 0 
L 8.203125 68.796875 
L 20.453125 68.796875 
L 38.765625 21.09375 
Q 39.75 18.21875 40.640625 14.921875 
Q 41.546875 11.625 41.84375 10.15625 
Q 42.234375 12.109375 43.484375 16.078125 
Q 44.734375 20.0625 45.171875 21.09375 
L 63.140625 68.796875 
L 75.09375 68.796875 
L 75.09375 0 
z
" id="LiberationSans-77"/>
        <path d="M 7.625 0 
L 7.625 7.46875 
L 25.140625 7.46875 
L 25.140625 60.40625 
L 9.625 49.3125 
L 9.625 57.625 
L 25.875 68.796875 
L 33.984375 68.796875 
L 33.984375 7.46875 
L 50.734375 7.46875 
L 50.734375 0 
z
" id="LiberationSans-49"/>
       </defs>
       <use xlink:href="#LiberationSans-77"/>
       <use x="83.300781" xlink:href="#LiberationSans-65"/>
       <use x="142.625" xlink:href="#LiberationSans-84"/>
       <use x="203.708984" xlink:href="#LiberationSans-83"/>
       <use x="270.408203" xlink:href="#LiberationSans-49"/>
       <use x="326.023438" xlink:href="#LiberationSans-112"/>
      </g>
     </g>
    </g>
    <g id="ytick_3">
     <g id="line2d_7">
      <g>
       <use style="fill:#262626;stroke:#262626;stroke-width:2;" x="100.725" xlink:href="#m2d37d55c4b" y="75.030148"/>
      </g>
     </g>
     <g id="text_8">
      <!-- ATS0p -->
      <g style="fill:#262626;" transform="translate(48.459063 80.102961)scale(0.14 -0.14)">
       <use xlink:href="#LiberationSans-65"/>
       <use x="59.324219" xlink:href="#LiberationSans-84"/>
       <use x="120.408203" xlink:href="#LiberationSans-83"/>
       <use x="187.107422" xlink:href="#LiberationSans-48"/>
       <use x="242.722656" xlink:href="#LiberationSans-112"/>
      </g>
     </g>
    </g>
    <g id="ytick_4">
     <g id="line2d_8">
      <g>
       <use style="fill:#262626;stroke:#262626;stroke-width:2;" x="100.725" xlink:href="#m2d37d55c4b" y="93.518089"/>
      </g>
     </g>
     <g id="text_9">
      <!-- AATSC2dv -->
      <g style="fill:#262626;" transform="translate(22.01 98.590902)scale(0.14 -0.14)">
       <defs>
        <path d="M 40.09375 8.5 
Q 37.640625 3.421875 33.609375 1.21875 
Q 29.59375 -0.984375 23.640625 -0.984375 
Q 13.625 -0.984375 8.90625 5.75 
Q 4.203125 12.5 4.203125 26.171875 
Q 4.203125 53.8125 23.640625 53.8125 
Q 29.640625 53.8125 33.640625 51.609375 
Q 37.640625 49.421875 40.09375 44.625 
L 40.1875 44.625 
L 40.09375 50.53125 
L 40.09375 72.46875 
L 48.875 72.46875 
L 48.875 10.890625 
Q 48.875 2.640625 49.171875 0 
L 40.765625 0 
Q 40.625 0.78125 40.453125 3.609375 
Q 40.28125 6.453125 40.28125 8.5 
z
M 13.421875 26.46875 
Q 13.421875 15.375 16.34375 10.59375 
Q 19.28125 5.8125 25.875 5.8125 
Q 33.34375 5.8125 36.71875 10.984375 
Q 40.09375 16.15625 40.09375 27.046875 
Q 40.09375 37.546875 36.71875 42.421875 
Q 33.34375 47.3125 25.984375 47.3125 
Q 19.34375 47.3125 16.375 42.40625 
Q 13.421875 37.5 13.421875 26.46875 
z
" id="LiberationSans-100"/>
        <path d="M 29.9375 0 
L 19.53125 0 
L 0.34375 52.828125 
L 9.71875 52.828125 
L 21.34375 18.453125 
Q 21.96875 16.5 24.703125 6.890625 
L 26.421875 12.59375 
L 28.328125 18.359375 
L 40.328125 52.828125 
L 49.65625 52.828125 
z
" id="LiberationSans-118"/>
       </defs>
       <use xlink:href="#LiberationSans-65"/>
       <use x="66.699219" xlink:href="#LiberationSans-65"/>
       <use x="126.023438" xlink:href="#LiberationSans-84"/>
       <use x="187.107422" xlink:href="#LiberationSans-83"/>
       <use x="253.806641" xlink:href="#LiberationSans-67"/>
       <use x="326.023438" xlink:href="#LiberationSans-50"/>
       <use x="381.638672" xlink:href="#LiberationSans-100"/>
       <use x="437.253906" xlink:href="#LiberationSans-118"/>
      </g>
     </g>
    </g>
    <g id="ytick_5">
     <g id="line2d_9">
      <g>
       <use style="fill:#262626;stroke:#262626;stroke-width:2;" x="100.725" xlink:href="#m2d37d55c4b" y="112.00603"/>
      </g>
     </g>
     <g id="text_10">
      <!-- MATS4p -->
      <g style="fill:#262626;" transform="translate(36.7975 117.078842)scale(0.14 -0.14)">
       <use xlink:href="#LiberationSans-77"/>
       <use x="83.300781" xlink:href="#LiberationSans-65"/>
       <use x="142.625" xlink:href="#LiberationSans-84"/>
       <use x="203.708984" xlink:href="#LiberationSans-83"/>
       <use x="270.408203" xlink:href="#LiberationSans-52"/>
       <use x="326.023438" xlink:href="#LiberationSans-112"/>
      </g>
     </g>
    </g>
    <g id="ytick_6">
     <g id="line2d_10">
      <g>
       <use style="fill:#262626;stroke:#262626;stroke-width:2;" x="100.725" xlink:href="#m2d37d55c4b" y="130.49397"/>
      </g>
     </g>
     <g id="text_11">
      <!-- ATSC0i -->
      <g style="fill:#262626;" transform="translate(43.023125 135.566783)scale(0.14 -0.14)">
       <defs>
        <path d="M 6.6875 64.0625 
L 6.6875 72.46875 
L 15.484375 72.46875 
L 15.484375 64.0625 
z
M 6.6875 0 
L 6.6875 52.828125 
L 15.484375 52.828125 
L 15.484375 0 
z
" id="LiberationSans-105"/>
       </defs>
       <use xlink:href="#LiberationSans-65"/>
       <use x="59.324219" xlink:href="#LiberationSans-84"/>
       <use x="120.408203" xlink:href="#LiberationSans-83"/>
       <use x="187.107422" xlink:href="#LiberationSans-67"/>
       <use x="259.324219" xlink:href="#LiberationSans-48"/>
       <use x="314.939453" xlink:href="#LiberationSans-105"/>
      </g>
     </g>
    </g>
    <g id="ytick_7">
     <g id="line2d_11">
      <g>
       <use style="fill:#262626;stroke:#262626;stroke-width:2;" x="100.725" xlink:href="#m2d37d55c4b" y="148.981911"/>
      </g>
     </g>
     <g id="text_12">
      <!-- ATSC0p -->
      <g style="fill:#262626;" transform="translate(38.348438 154.054723)scale(0.14 -0.14)">
       <use xlink:href="#LiberationSans-65"/>
       <use x="59.324219" xlink:href="#LiberationSans-84"/>
       <use x="120.408203" xlink:href="#LiberationSans-83"/>
       <use x="187.107422" xlink:href="#LiberationSans-67"/>
       <use x="259.324219" xlink:href="#LiberationSans-48"/>
       <use x="314.939453" xlink:href="#LiberationSans-112"/>
      </g>
     </g>
    </g>
    <g id="ytick_8">
     <g id="line2d_12">
      <g>
       <use style="fill:#262626;stroke:#262626;stroke-width:2;" x="100.725" xlink:href="#m2d37d55c4b" y="167.469852"/>
      </g>
     </g>
     <g id="text_13">
      <!-- MATS1se -->
      <g style="fill:#262626;" transform="translate(29.7975 172.542664)scale(0.14 -0.14)">
       <defs>
        <path d="M 46.390625 14.59375 
Q 46.390625 7.125 40.75 3.0625 
Q 35.109375 -0.984375 24.953125 -0.984375 
Q 15.09375 -0.984375 9.734375 2.265625 
Q 4.390625 5.515625 2.78125 12.40625 
L 10.546875 13.921875 
Q 11.671875 9.671875 15.1875 7.6875 
Q 18.703125 5.71875 24.953125 5.71875 
Q 31.640625 5.71875 34.734375 7.765625 
Q 37.84375 9.8125 37.84375 13.921875 
Q 37.84375 17.046875 35.6875 19 
Q 33.546875 20.953125 28.765625 22.21875 
L 22.46875 23.875 
Q 14.890625 25.828125 11.6875 27.703125 
Q 8.5 29.59375 6.6875 32.28125 
Q 4.890625 34.96875 4.890625 38.875 
Q 4.890625 46.09375 10.03125 49.875 
Q 15.1875 53.65625 25.046875 53.65625 
Q 33.796875 53.65625 38.9375 50.578125 
Q 44.09375 47.515625 45.453125 40.71875 
L 37.546875 39.75 
Q 36.8125 43.265625 33.609375 45.140625 
Q 30.421875 47.015625 25.046875 47.015625 
Q 19.09375 47.015625 16.25 45.203125 
Q 13.421875 43.40625 13.421875 39.75 
Q 13.421875 37.5 14.59375 36.03125 
Q 15.765625 34.578125 18.0625 33.546875 
Q 20.359375 32.515625 27.734375 30.71875 
Q 34.71875 28.953125 37.796875 27.46875 
Q 40.875 25.984375 42.65625 24.171875 
Q 44.4375 22.359375 45.40625 19.984375 
Q 46.390625 17.625 46.390625 14.59375 
z
" id="LiberationSans-115"/>
       </defs>
       <use xlink:href="#LiberationSans-77"/>
       <use x="83.300781" xlink:href="#LiberationSans-65"/>
       <use x="142.625" xlink:href="#LiberationSans-84"/>
       <use x="203.708984" xlink:href="#LiberationSans-83"/>
       <use x="270.408203" xlink:href="#LiberationSans-49"/>
       <use x="326.023438" xlink:href="#LiberationSans-115"/>
       <use x="376.023438" xlink:href="#LiberationSans-101"/>
      </g>
     </g>
    </g>
    <g id="ytick_9">
     <g id="line2d_13">
      <g>
       <use style="fill:#262626;stroke:#262626;stroke-width:2;" x="100.725" xlink:href="#m2d37d55c4b" y="185.957792"/>
      </g>
     </g>
     <g id="text_14">
      <!-- SLogP -->
      <g style="fill:#262626;" transform="translate(48.192188 191.030605)scale(0.14 -0.14)">
       <defs>
        <path d="M 8.203125 0 
L 8.203125 68.796875 
L 17.53125 68.796875 
L 17.53125 7.625 
L 52.296875 7.625 
L 52.296875 0 
z
" id="LiberationSans-76"/>
        <path d="M 26.765625 -20.75 
Q 18.109375 -20.75 12.984375 -17.359375 
Q 7.859375 -13.96875 6.390625 -7.71875 
L 15.234375 -6.453125 
Q 16.109375 -10.109375 19.109375 -12.078125 
Q 22.125 -14.0625 27 -14.0625 
Q 40.140625 -14.0625 40.140625 1.3125 
L 40.140625 9.8125 
L 40.046875 9.8125 
Q 37.546875 4.734375 33.203125 2.171875 
Q 28.859375 -0.390625 23.046875 -0.390625 
Q 13.328125 -0.390625 8.765625 6.046875 
Q 4.203125 12.5 4.203125 26.3125 
Q 4.203125 40.328125 9.109375 46.984375 
Q 14.015625 53.65625 24.03125 53.65625 
Q 29.640625 53.65625 33.765625 51.09375 
Q 37.890625 48.53125 40.140625 43.796875 
L 40.234375 43.796875 
Q 40.234375 45.265625 40.421875 48.875 
Q 40.625 52.484375 40.828125 52.828125 
L 49.171875 52.828125 
Q 48.875 50.203125 48.875 41.890625 
L 48.875 1.515625 
Q 48.875 -20.75 26.765625 -20.75 
z
M 40.140625 26.421875 
Q 40.140625 32.859375 38.375 37.515625 
Q 36.625 42.1875 33.421875 44.65625 
Q 30.21875 47.125 26.171875 47.125 
Q 19.4375 47.125 16.359375 42.234375 
Q 13.28125 37.359375 13.28125 26.421875 
Q 13.28125 15.578125 16.15625 10.84375 
Q 19.046875 6.109375 26.03125 6.109375 
Q 30.171875 6.109375 33.390625 8.546875 
Q 36.625 10.984375 38.375 15.546875 
Q 40.140625 20.125 40.140625 26.421875 
z
" id="LiberationSans-103"/>
        <path d="M 61.421875 48.09375 
Q 61.421875 38.328125 55.046875 32.5625 
Q 48.6875 26.8125 37.75 26.8125 
L 17.53125 26.8125 
L 17.53125 0 
L 8.203125 0 
L 8.203125 68.796875 
L 37.15625 68.796875 
Q 48.734375 68.796875 55.078125 63.375 
Q 61.421875 57.953125 61.421875 48.09375 
z
M 52.046875 48 
Q 52.046875 61.328125 36.03125 61.328125 
L 17.53125 61.328125 
L 17.53125 34.1875 
L 36.421875 34.1875 
Q 52.046875 34.1875 52.046875 48 
z
" id="LiberationSans-80"/>
       </defs>
       <use xlink:href="#LiberationSans-83"/>
       <use x="66.699219" xlink:href="#LiberationSans-76"/>
       <use x="122.314453" xlink:href="#LiberationSans-111"/>
       <use x="177.929688" xlink:href="#LiberationSans-103"/>
       <use x="233.544922" xlink:href="#LiberationSans-80"/>
      </g>
     </g>
    </g>
    <g id="ytick_10">
     <g id="line2d_14">
      <g>
       <use style="fill:#262626;stroke:#262626;stroke-width:2;" x="100.725" xlink:href="#m2d37d55c4b" y="204.445733"/>
      </g>
     </g>
     <g id="text_15">
      <!-- AATSC2c -->
      <g style="fill:#262626;" transform="translate(29.795313 209.518545)scale(0.14 -0.14)">
       <use xlink:href="#LiberationSans-65"/>
       <use x="66.699219" xlink:href="#LiberationSans-65"/>
       <use x="126.023438" xlink:href="#LiberationSans-84"/>
       <use x="187.107422" xlink:href="#LiberationSans-83"/>
       <use x="253.806641" xlink:href="#LiberationSans-67"/>
       <use x="326.023438" xlink:href="#LiberationSans-50"/>
       <use x="381.638672" xlink:href="#LiberationSans-99"/>
      </g>
     </g>
    </g>
   </g>
   <g id="patch_3">
    <path clip-path="url(#pb65ce214a5)" d="M 100.725 30.659091 
L 300.566883 30.659091 
L 300.566883 45.449443 
L 100.725 45.449443 
z
" style="fill:#1f77b4;"/>
   </g>
   <g id="patch_4">
    <path clip-path="url(#pb65ce214a5)" d="M 100.725 49.147032 
L 203.900518 49.147032 
L 203.900518 63.937384 
L 100.725 63.937384 
z
" style="fill:#1f77b4;"/>
   </g>
   <g id="patch_5">
    <path clip-path="url(#pb65ce214a5)" d="M 100.725 67.634972 
L 169.058595 67.634972 
L 169.058595 82.425325 
L 100.725 82.425325 
z
" style="fill:#1f77b4;"/>
   </g>
   <g id="patch_6">
    <path clip-path="url(#pb65ce214a5)" d="M 100.725 86.122913 
L 163.408046 86.122913 
L 163.408046 100.913265 
L 100.725 100.913265 
z
" style="fill:#1f77b4;"/>
   </g>
   <g id="patch_7">
    <path clip-path="url(#pb65ce214a5)" d="M 100.725 104.610853 
L 155.606221 104.610853 
L 155.606221 119.401206 
L 100.725 119.401206 
z
" style="fill:#1f77b4;"/>
   </g>
   <g id="patch_8">
    <path clip-path="url(#pb65ce214a5)" d="M 100.725 123.098794 
L 150.590255 123.098794 
L 150.590255 137.889147 
L 100.725 137.889147 
z
" style="fill:#1f77b4;"/>
   </g>
   <g id="patch_9">
    <path clip-path="url(#pb65ce214a5)" d="M 100.725 141.586735 
L 146.146885 141.586735 
L 146.146885 156.377087 
L 100.725 156.377087 
z
" style="fill:#1f77b4;"/>
   </g>
   <g id="patch_10">
    <path clip-path="url(#pb65ce214a5)" d="M 100.725 160.074675 
L 142.36737 160.074675 
L 142.36737 174.865028 
L 100.725 174.865028 
z
" style="fill:#1f77b4;"/>
   </g>
   <g id="patch_11">
    <path clip-path="url(#pb65ce214a5)" d="M 100.725 178.562616 
L 140.457108 178.562616 
L 140.457108 193.352968 
L 100.725 193.352968 
z
" style="fill:#1f77b4;"/>
   </g>
   <g id="patch_12">
    <path clip-path="url(#pb65ce214a5)" d="M 100.725 197.050557 
L 136.852708 197.050557 
L 136.852708 211.840909 
L 100.725 211.840909 
z
" style="fill:#1f77b4;"/>
   </g>
   <g id="LineCollection_1">
    <path clip-path="url(#pb65ce214a5)" d="M 205.480194 38.054267 
L 395.653571 38.054267 
" style="fill:none;stroke:#000000;stroke-width:3;"/>
    <path clip-path="url(#pb65ce214a5)" d="M 169.131929 56.542208 
L 238.669106 56.542208 
" style="fill:none;stroke:#000000;stroke-width:3;"/>
    <path clip-path="url(#pb65ce214a5)" d="M 139.255497 75.030148 
L 198.861693 75.030148 
" style="fill:none;stroke:#000000;stroke-width:3;"/>
    <path clip-path="url(#pb65ce214a5)" d="M 146.895562 93.518089 
L 179.920531 93.518089 
" style="fill:none;stroke:#000000;stroke-width:3;"/>
    <path clip-path="url(#pb65ce214a5)" d="M 116.880103 112.00603 
L 194.332338 112.00603 
" style="fill:none;stroke:#000000;stroke-width:3;"/>
    <path clip-path="url(#pb65ce214a5)" d="M 119.269254 130.49397 
L 181.911256 130.49397 
" style="fill:none;stroke:#000000;stroke-width:3;"/>
    <path clip-path="url(#pb65ce214a5)" d="M 127.98972 148.981911 
L 164.304051 148.981911 
" style="fill:none;stroke:#000000;stroke-width:3;"/>
    <path clip-path="url(#pb65ce214a5)" d="M 126.840084 167.469852 
L 157.894657 167.469852 
" style="fill:none;stroke:#000000;stroke-width:3;"/>
    <path clip-path="url(#pb65ce214a5)" d="M 124.332661 185.957792 
L 156.581555 185.957792 
" style="fill:none;stroke:#000000;stroke-width:3;"/>
    <path clip-path="url(#pb65ce214a5)" d="M 117.551297 204.445733 
L 156.154118 204.445733 
" style="fill:none;stroke:#000000;stroke-width:3;"/>
   </g>
   <g id="patch_13">
    <path d="M 100.725 220.9 
L 100.725 21.6 
" style="fill:none;stroke:#262626;stroke-linecap:square;stroke-linejoin:miter;stroke-width:2;"/>
   </g>
   <g id="patch_14">
    <path d="M 410.4 220.9 
L 410.4 21.6 
" style="fill:none;stroke:#262626;stroke-linecap:square;stroke-linejoin:miter;stroke-width:2;"/>
   </g>
   <g id="patch_15">
    <path d="M 100.725 220.9 
L 410.4 220.9 
" style="fill:none;stroke:#262626;stroke-linecap:square;stroke-linejoin:miter;stroke-width:2;"/>
   </g>
   <g id="patch_16">
    <path d="M 100.725 21.6 
L 410.4 21.6 
" style="fill:none;stroke:#262626;stroke-linecap:square;stroke-linejoin:miter;stroke-width:2;"/>
   </g>
   <g id="legend_1">
    <g id="patch_17">
     <path d="M 278.6525 212.9 
L 399.2 212.9 
Q 402.4 212.9 402.4 209.7 
L 402.4 188.385 
Q 402.4 185.185 399.2 185.185 
L 278.6525 185.185 
Q 275.4525 185.185 275.4525 188.385 
L 275.4525 209.7 
Q 275.4525 212.9 278.6525 212.9 
z
" style="fill:#ffffff;opacity:0.8;stroke:#cccccc;stroke-linejoin:miter;"/>
    </g>
    <g id="patch_18">
     <path d="M 281.8525 203.18 
L 313.8525 203.18 
L 313.8525 191.98 
L 281.8525 191.98 
z
" style="fill:#1f77b4;"/>
    </g>
    <g id="text_16">
     <!-- Clint-Feat -->
     <g style="fill:#262626;" transform="translate(326.6525 203.18)scale(0.16 -0.16)">
      <defs>
       <path d="M 6.734375 0 
L 6.734375 72.46875 
L 15.53125 72.46875 
L 15.53125 0 
z
" id="LiberationSans-108"/>
       <path d="M 4.4375 22.65625 
L 4.4375 30.46875 
L 28.859375 30.46875 
L 28.859375 22.65625 
z
" id="LiberationSans-45"/>
      </defs>
      <use xlink:href="#LiberationSans-67"/>
      <use x="72.216797" xlink:href="#LiberationSans-108"/>
      <use x="94.433594" xlink:href="#LiberationSans-105"/>
      <use x="116.650391" xlink:href="#LiberationSans-110"/>
      <use x="172.265625" xlink:href="#LiberationSans-116"/>
      <use x="200.048828" xlink:href="#LiberationSans-45"/>
      <use x="233.349609" xlink:href="#LiberationSans-70"/>
      <use x="294.433594" xlink:href="#LiberationSans-101"/>
      <use x="350.048828" xlink:href="#LiberationSans-97"/>
      <use x="405.664062" xlink:href="#LiberationSans-116"/>
     </g>
    </g>
   </g>
  </g>
 </g>
 <defs>
  <clipPath id="pb65ce214a5">
   <rect height="199.3" width="309.675" x="100.725" y="21.6"/>
  </clipPath>
 </defs>
</svg>
