<?xml version="1.0" encoding="utf-8" standalone="no"?>
<!DOCTYPE svg PUBLIC "-//W3C//DTD SVG 1.1//EN"
  "http://www.w3.org/Graphics/SVG/1.1/DTD/svg11.dtd">
<!-- Created with matplotlib (https://matplotlib.org/) -->
<svg height="360pt" version="1.1" viewBox="0 0 432 360" width="432pt" xmlns="http://www.w3.org/2000/svg" xmlns:xlink="http://www.w3.org/1999/xlink">
 <metadata>
  <rdf:RDF xmlns:cc="http://creativecommons.org/ns#" xmlns:dc="http://purl.org/dc/elements/1.1/" xmlns:rdf="http://www.w3.org/1999/02/22-rdf-syntax-ns#">
   <cc:Work>
    <dc:type rdf:resource="http://purl.org/dc/dcmitype/StillImage"/>
    <dc:date>2022-12-16T17:53:47.630438</dc:date>
    <dc:format>image/svg+xml</dc:format>
    <dc:creator>
     <cc:Agent>
      <dc:title>Matplotlib v3.3.4, https://matplotlib.org/</dc:title>
     </cc:Agent>
    </dc:creator>
   </cc:Work>
  </rdf:RDF>
 </metadata>
 <defs>
  <style type="text/css">*{stroke-linecap:butt;stroke-linejoin:round;}</style>
 </defs>
 <g id="figure_1">
  <g id="patch_1">
   <path d="M 0 360 
L 432 360 
L 432 0 
L 0 0 
z
" style="fill:#ffffff;"/>
  </g>
  <g id="axes_1">
   <g id="patch_2">
    <path d="M 75.843516 289.9 
L 410.4 289.9 
L 410.4 21.6 
L 75.843516 21.6 
z
" style="fill:#ffffff;"/>
   </g>
   <g id="matplotlib.axis_1">
    <g id="xtick_1">
     <g id="line2d_1">
      <defs>
       <path d="M 0 0 
L 0 7 
" id="m3da03abe91" style="stroke:#262626;stroke-width:2;"/>
      </defs>
      <g>
       <use style="fill:#262626;stroke:#262626;stroke-width:2;" x="135.795215" xlink:href="#m3da03abe91" y="289.9"/>
      </g>
     </g>
     <g id="text_1">
      <!-- 200 -->
      <g style="fill:#262626;" transform="translate(124.117247 310.545625)scale(0.14 -0.14)">
       <defs>
        <path d="M 5.03125 0 
L 5.03125 6.203125 
Q 7.515625 11.921875 11.109375 16.28125 
Q 14.703125 20.65625 18.65625 24.1875 
Q 22.609375 27.734375 26.484375 30.765625 
Q 30.375 33.796875 33.5 36.8125 
Q 36.625 39.84375 38.546875 43.15625 
Q 40.484375 46.484375 40.484375 50.6875 
Q 40.484375 56.34375 37.15625 59.46875 
Q 33.84375 62.59375 27.9375 62.59375 
Q 22.3125 62.59375 18.671875 59.546875 
Q 15.046875 56.5 14.40625 50.984375 
L 5.421875 51.8125 
Q 6.390625 60.0625 12.421875 64.9375 
Q 18.453125 69.828125 27.9375 69.828125 
Q 38.328125 69.828125 43.921875 64.921875 
Q 49.515625 60.015625 49.515625 50.984375 
Q 49.515625 46.96875 47.671875 43.015625 
Q 45.84375 39.0625 42.234375 35.109375 
Q 38.625 31.15625 28.421875 22.859375 
Q 22.796875 18.265625 19.46875 14.578125 
Q 16.15625 10.890625 14.703125 7.46875 
L 50.59375 7.46875 
L 50.59375 0 
z
" id="LiberationSans-50"/>
        <path d="M 51.703125 34.421875 
Q 51.703125 17.1875 45.625 8.09375 
Q 39.546875 -0.984375 27.6875 -0.984375 
Q 15.828125 -0.984375 9.859375 8.046875 
Q 3.90625 17.09375 3.90625 34.421875 
Q 3.90625 52.15625 9.6875 60.984375 
Q 15.484375 69.828125 27.984375 69.828125 
Q 40.140625 69.828125 45.921875 60.890625 
Q 51.703125 51.953125 51.703125 34.421875 
z
M 42.78125 34.421875 
Q 42.78125 49.3125 39.328125 56 
Q 35.890625 62.703125 27.984375 62.703125 
Q 19.875 62.703125 16.328125 56.109375 
Q 12.796875 49.515625 12.796875 34.421875 
Q 12.796875 19.78125 16.375 12.984375 
Q 19.96875 6.203125 27.78125 6.203125 
Q 35.546875 6.203125 39.15625 13.125 
Q 42.78125 20.0625 42.78125 34.421875 
z
" id="LiberationSans-48"/>
       </defs>
       <use xlink:href="#LiberationSans-50"/>
       <use x="55.615234" xlink:href="#LiberationSans-48"/>
       <use x="111.230469" xlink:href="#LiberationSans-48"/>
      </g>
     </g>
    </g>
    <g id="xtick_2">
     <g id="line2d_2">
      <g>
       <use style="fill:#262626;stroke:#262626;stroke-width:2;" x="196.260873" xlink:href="#m3da03abe91" y="289.9"/>
      </g>
     </g>
     <g id="text_2">
      <!-- 400 -->
      <g style="fill:#262626;" transform="translate(184.582904 310.545625)scale(0.14 -0.14)">
       <defs>
        <path d="M 43.015625 15.578125 
L 43.015625 0 
L 34.71875 0 
L 34.71875 15.578125 
L 2.296875 15.578125 
L 2.296875 22.40625 
L 33.796875 68.796875 
L 43.015625 68.796875 
L 43.015625 22.515625 
L 52.6875 22.515625 
L 52.6875 15.578125 
z
M 34.71875 58.890625 
Q 34.625 58.59375 33.34375 56.296875 
Q 32.078125 54 31.453125 53.078125 
L 13.8125 27.09375 
L 11.1875 23.484375 
L 10.40625 22.515625 
L 34.71875 22.515625 
z
" id="LiberationSans-52"/>
       </defs>
       <use xlink:href="#LiberationSans-52"/>
       <use x="55.615234" xlink:href="#LiberationSans-48"/>
       <use x="111.230469" xlink:href="#LiberationSans-48"/>
      </g>
     </g>
    </g>
    <g id="xtick_3">
     <g id="line2d_3">
      <g>
       <use style="fill:#262626;stroke:#262626;stroke-width:2;" x="256.726531" xlink:href="#m3da03abe91" y="289.9"/>
      </g>
     </g>
     <g id="text_3">
      <!-- 600 -->
      <g style="fill:#262626;" transform="translate(245.048562 310.545625)scale(0.14 -0.14)">
       <defs>
        <path d="M 51.21875 22.515625 
Q 51.21875 11.625 45.3125 5.3125 
Q 39.40625 -0.984375 29 -0.984375 
Q 17.390625 -0.984375 11.234375 7.65625 
Q 5.078125 16.3125 5.078125 32.8125 
Q 5.078125 50.6875 11.46875 60.25 
Q 17.875 69.828125 29.6875 69.828125 
Q 45.265625 69.828125 49.3125 55.8125 
L 40.921875 54.296875 
Q 38.328125 62.703125 29.59375 62.703125 
Q 22.078125 62.703125 17.9375 55.6875 
Q 13.8125 48.6875 13.8125 35.40625 
Q 16.21875 39.84375 20.5625 42.15625 
Q 24.90625 44.484375 30.515625 44.484375 
Q 40.046875 44.484375 45.625 38.515625 
Q 51.21875 32.5625 51.21875 22.515625 
z
M 42.28125 22.125 
Q 42.28125 29.59375 38.625 33.640625 
Q 34.96875 37.703125 28.421875 37.703125 
Q 22.265625 37.703125 18.484375 34.109375 
Q 14.703125 30.515625 14.703125 24.21875 
Q 14.703125 16.265625 18.625 11.1875 
Q 22.5625 6.109375 28.71875 6.109375 
Q 35.0625 6.109375 38.671875 10.375 
Q 42.28125 14.65625 42.28125 22.125 
z
" id="LiberationSans-54"/>
       </defs>
       <use xlink:href="#LiberationSans-54"/>
       <use x="55.615234" xlink:href="#LiberationSans-48"/>
       <use x="111.230469" xlink:href="#LiberationSans-48"/>
      </g>
     </g>
    </g>
    <g id="xtick_4">
     <g id="line2d_4">
      <g>
       <use style="fill:#262626;stroke:#262626;stroke-width:2;" x="317.192189" xlink:href="#m3da03abe91" y="289.9"/>
      </g>
     </g>
     <g id="text_4">
      <!-- 800 -->
      <g style="fill:#262626;" transform="translate(305.51422 310.545625)scale(0.14 -0.14)">
       <defs>
        <path d="M 51.265625 19.1875 
Q 51.265625 9.671875 45.203125 4.34375 
Q 39.15625 -0.984375 27.828125 -0.984375 
Q 16.796875 -0.984375 10.5625 4.234375 
Q 4.34375 9.46875 4.34375 19.09375 
Q 4.34375 25.828125 8.203125 30.421875 
Q 12.0625 35.015625 18.0625 35.984375 
L 18.0625 36.1875 
Q 12.453125 37.5 9.203125 41.890625 
Q 5.953125 46.296875 5.953125 52.203125 
Q 5.953125 60.0625 11.828125 64.9375 
Q 17.71875 69.828125 27.640625 69.828125 
Q 37.796875 69.828125 43.671875 65.03125 
Q 49.5625 60.25 49.5625 52.09375 
Q 49.5625 46.1875 46.28125 41.796875 
Q 43.015625 37.40625 37.359375 36.28125 
L 37.359375 36.078125 
Q 43.953125 35.015625 47.609375 30.5 
Q 51.265625 25.984375 51.265625 19.1875 
z
M 40.4375 51.609375 
Q 40.4375 63.28125 27.640625 63.28125 
Q 21.4375 63.28125 18.1875 60.34375 
Q 14.9375 57.421875 14.9375 51.609375 
Q 14.9375 45.703125 18.28125 42.59375 
Q 21.625 39.5 27.734375 39.5 
Q 33.9375 39.5 37.1875 42.359375 
Q 40.4375 45.21875 40.4375 51.609375 
z
M 42.140625 20.015625 
Q 42.140625 26.421875 38.328125 29.65625 
Q 34.515625 32.90625 27.640625 32.90625 
Q 20.953125 32.90625 17.1875 29.40625 
Q 13.421875 25.921875 13.421875 19.828125 
Q 13.421875 5.609375 27.9375 5.609375 
Q 35.109375 5.609375 38.625 9.046875 
Q 42.140625 12.5 42.140625 20.015625 
z
" id="LiberationSans-56"/>
       </defs>
       <use xlink:href="#LiberationSans-56"/>
       <use x="55.615234" xlink:href="#LiberationSans-48"/>
       <use x="111.230469" xlink:href="#LiberationSans-48"/>
      </g>
     </g>
    </g>
    <g id="xtick_5">
     <g id="line2d_5">
      <g>
       <use style="fill:#262626;stroke:#262626;stroke-width:2;" x="377.657846" xlink:href="#m3da03abe91" y="289.9"/>
      </g>
     </g>
     <g id="text_5">
      <!-- 1000 -->
      <g style="fill:#262626;" transform="translate(362.087221 310.545625)scale(0.14 -0.14)">
       <defs>
        <path d="M 7.625 0 
L 7.625 7.46875 
L 25.140625 7.46875 
L 25.140625 60.40625 
L 9.625 49.3125 
L 9.625 57.625 
L 25.875 68.796875 
L 33.984375 68.796875 
L 33.984375 7.46875 
L 50.734375 7.46875 
L 50.734375 0 
z
" id="LiberationSans-49"/>
       </defs>
       <use xlink:href="#LiberationSans-49"/>
       <use x="55.615234" xlink:href="#LiberationSans-48"/>
       <use x="111.230469" xlink:href="#LiberationSans-48"/>
       <use x="166.845703" xlink:href="#LiberationSans-48"/>
      </g>
     </g>
    </g>
    <g id="text_6">
     <!-- $N_{data}$ -->
     <g style="fill:#262626;" transform="translate(221.881758 330.495)scale(0.18 -0.18)">
      <defs>
       <path d="M 16.890625 72.90625 
L 30.171875 72.90625 
L 50.296875 10.40625 
L 62.5 72.90625 
L 72.125 72.90625 
L 57.90625 0 
L 44.578125 0 
L 24.515625 62.890625 
L 12.3125 0 
L 2.6875 0 
z
" id="DejaVuSans-Oblique-78"/>
       <path d="M 41.796875 8.203125 
Q 38.1875 3.46875 33.25 1.015625 
Q 28.328125 -1.421875 22.3125 -1.421875 
Q 14.109375 -1.421875 9.34375 4.171875 
Q 4.59375 9.765625 4.59375 19.484375 
Q 4.59375 27.59375 7.46875 34.9375 
Q 10.359375 42.28125 15.828125 48.09375 
Q 19.4375 51.953125 23.96875 53.96875 
Q 28.515625 56 33.5 56 
Q 38.765625 56 42.796875 53.453125 
Q 46.828125 50.921875 49.03125 46.1875 
L 54.890625 75.984375 
L 63.921875 75.984375 
L 49.125 0 
L 40.09375 0 
z
M 13.921875 21.09375 
Q 13.921875 14.015625 17.109375 10.0625 
Q 20.3125 6.109375 25.984375 6.109375 
Q 30.171875 6.109375 33.765625 8.125 
Q 37.359375 10.15625 40.09375 14.109375 
Q 42.96875 18.21875 44.625 23.578125 
Q 46.296875 28.953125 46.296875 34.1875 
Q 46.296875 40.96875 43.09375 44.765625 
Q 39.890625 48.578125 34.28125 48.578125 
Q 30.03125 48.578125 26.359375 46.578125 
Q 22.703125 44.578125 20.125 40.828125 
Q 17.28125 36.765625 15.59375 31.390625 
Q 13.921875 26.03125 13.921875 21.09375 
z
" id="DejaVuSans-Oblique-100"/>
       <path d="M 53.71875 31.203125 
L 47.609375 0 
L 38.625 0 
L 40.28125 8.296875 
Q 36.328125 3.421875 31.265625 1 
Q 26.21875 -1.421875 20.015625 -1.421875 
Q 13.03125 -1.421875 8.5625 2.84375 
Q 4.109375 7.125 4.109375 13.8125 
Q 4.109375 23.390625 11.75 28.953125 
Q 19.390625 34.515625 32.8125 34.515625 
L 45.3125 34.515625 
L 45.796875 36.921875 
Q 45.90625 37.3125 45.953125 37.765625 
Q 46 38.234375 46 39.203125 
Q 46 43.5625 42.453125 45.96875 
Q 38.921875 48.390625 32.515625 48.390625 
Q 28.125 48.390625 23.5 47.265625 
Q 18.890625 46.140625 14.015625 43.890625 
L 15.578125 52.203125 
Q 20.65625 54.109375 25.515625 55.046875 
Q 30.375 56 34.90625 56 
Q 44.578125 56 49.625 51.796875 
Q 54.6875 47.609375 54.6875 39.59375 
Q 54.6875 37.984375 54.4375 35.8125 
Q 54.203125 33.640625 53.71875 31.203125 
z
M 44 27.484375 
L 35.015625 27.484375 
Q 23.96875 27.484375 18.671875 24.53125 
Q 13.375 21.578125 13.375 15.375 
Q 13.375 11.078125 16.078125 8.640625 
Q 18.796875 6.203125 23.578125 6.203125 
Q 30.90625 6.203125 36.375 11.453125 
Q 41.84375 16.703125 43.609375 25.484375 
z
" id="DejaVuSans-Oblique-97"/>
       <path d="M 42.28125 54.6875 
L 40.921875 47.703125 
L 23 47.703125 
L 17.1875 18.015625 
Q 16.890625 16.359375 16.75 15.234375 
Q 16.609375 14.109375 16.609375 13.484375 
Q 16.609375 10.359375 18.484375 8.9375 
Q 20.359375 7.515625 24.515625 7.515625 
L 33.59375 7.515625 
L 32.078125 0 
L 23.484375 0 
Q 15.484375 0 11.546875 3.125 
Q 7.625 6.25 7.625 12.59375 
Q 7.625 13.71875 7.765625 15.0625 
Q 7.90625 16.40625 8.203125 18.015625 
L 14.015625 47.703125 
L 6.390625 47.703125 
L 7.8125 54.6875 
L 15.28125 54.6875 
L 18.3125 70.21875 
L 27.296875 70.21875 
L 24.3125 54.6875 
z
" id="DejaVuSans-Oblique-116"/>
      </defs>
      <use transform="translate(0 0.09375)" xlink:href="#DejaVuSans-Oblique-78"/>
      <use transform="translate(74.804688 -16.3125)scale(0.7)" xlink:href="#DejaVuSans-Oblique-100"/>
      <use transform="translate(119.238281 -16.3125)scale(0.7)" xlink:href="#DejaVuSans-Oblique-97"/>
      <use transform="translate(162.133789 -16.3125)scale(0.7)" xlink:href="#DejaVuSans-Oblique-116"/>
      <use transform="translate(189.580078 -16.3125)scale(0.7)" xlink:href="#DejaVuSans-Oblique-97"/>
     </g>
    </g>
   </g>
   <g id="matplotlib.axis_2">
    <g id="ytick_1">
     <g id="line2d_6">
      <defs>
       <path d="M 0 0 
L -7 0 
" id="m4018c6a754" style="stroke:#262626;stroke-width:2;"/>
      </defs>
      <g>
       <use style="fill:#262626;stroke:#262626;stroke-width:2;" x="75.843516" xlink:href="#m4018c6a754" y="183.36917"/>
      </g>
     </g>
     <g id="text_7">
      <!-- $\mathdefault{10^{0}}$ -->
      <g style="fill:#262626;" transform="translate(43.783516 188.441983)scale(0.14 -0.14)">
       <use transform="translate(0 0.140625)" xlink:href="#LiberationSans-49"/>
       <use transform="translate(55.615234 0.140625)" xlink:href="#LiberationSans-48"/>
       <use transform="translate(112.154961 37.120312)scale(0.7)" xlink:href="#LiberationSans-48"/>
      </g>
     </g>
    </g>
    <g id="ytick_2">
     <g id="line2d_7">
      <g>
       <use style="fill:#262626;stroke:#262626;stroke-width:2;" x="75.843516" xlink:href="#m4018c6a754" y="58.48535"/>
      </g>
     </g>
     <g id="text_8">
      <!-- $\mathdefault{10^{1}}$ -->
      <g style="fill:#262626;" transform="translate(43.783516 63.558162)scale(0.14 -0.14)">
       <use transform="translate(0 0.8625)" xlink:href="#LiberationSans-49"/>
       <use transform="translate(55.615234 0.8625)" xlink:href="#LiberationSans-48"/>
       <use transform="translate(112.154961 37.842188)scale(0.7)" xlink:href="#LiberationSans-49"/>
      </g>
     </g>
    </g>
    <g id="ytick_3">
     <g id="line2d_8">
      <defs>
       <path d="M 0 0 
L -3 0 
" id="m17627fd1d4" style="stroke:#262626;stroke-width:0.6;"/>
      </defs>
      <g>
       <use style="fill:#262626;stroke:#262626;stroke-width:0.6;" x="75.843516" xlink:href="#m17627fd1d4" y="270.659214"/>
      </g>
     </g>
    </g>
    <g id="ytick_4">
     <g id="line2d_9">
      <g>
       <use style="fill:#262626;stroke:#262626;stroke-width:0.6;" x="75.843516" xlink:href="#m17627fd1d4" y="248.668265"/>
      </g>
     </g>
    </g>
    <g id="ytick_5">
     <g id="line2d_10">
      <g>
       <use style="fill:#262626;stroke:#262626;stroke-width:0.6;" x="75.843516" xlink:href="#m17627fd1d4" y="233.065439"/>
      </g>
     </g>
    </g>
    <g id="ytick_6">
     <g id="line2d_11">
      <g>
       <use style="fill:#262626;stroke:#262626;stroke-width:0.6;" x="75.843516" xlink:href="#m17627fd1d4" y="220.962946"/>
      </g>
     </g>
    </g>
    <g id="ytick_7">
     <g id="line2d_12">
      <g>
       <use style="fill:#262626;stroke:#262626;stroke-width:0.6;" x="75.843516" xlink:href="#m17627fd1d4" y="211.074489"/>
      </g>
     </g>
    </g>
    <g id="ytick_8">
     <g id="line2d_13">
      <g>
       <use style="fill:#262626;stroke:#262626;stroke-width:0.6;" x="75.843516" xlink:href="#m17627fd1d4" y="202.713919"/>
      </g>
     </g>
    </g>
    <g id="ytick_9">
     <g id="line2d_14">
      <g>
       <use style="fill:#262626;stroke:#262626;stroke-width:0.6;" x="75.843516" xlink:href="#m17627fd1d4" y="195.471663"/>
      </g>
     </g>
    </g>
    <g id="ytick_10">
     <g id="line2d_15">
      <g>
       <use style="fill:#262626;stroke:#262626;stroke-width:0.6;" x="75.843516" xlink:href="#m17627fd1d4" y="189.08354"/>
      </g>
     </g>
    </g>
    <g id="ytick_11">
     <g id="line2d_16">
      <g>
       <use style="fill:#262626;stroke:#262626;stroke-width:0.6;" x="75.843516" xlink:href="#m17627fd1d4" y="145.775394"/>
      </g>
     </g>
    </g>
    <g id="ytick_12">
     <g id="line2d_17">
      <g>
       <use style="fill:#262626;stroke:#262626;stroke-width:0.6;" x="75.843516" xlink:href="#m17627fd1d4" y="123.784445"/>
      </g>
     </g>
    </g>
    <g id="ytick_13">
     <g id="line2d_18">
      <g>
       <use style="fill:#262626;stroke:#262626;stroke-width:0.6;" x="75.843516" xlink:href="#m17627fd1d4" y="108.181618"/>
      </g>
     </g>
    </g>
    <g id="ytick_14">
     <g id="line2d_19">
      <g>
       <use style="fill:#262626;stroke:#262626;stroke-width:0.6;" x="75.843516" xlink:href="#m17627fd1d4" y="96.079126"/>
      </g>
     </g>
    </g>
    <g id="ytick_15">
     <g id="line2d_20">
      <g>
       <use style="fill:#262626;stroke:#262626;stroke-width:0.6;" x="75.843516" xlink:href="#m17627fd1d4" y="86.190669"/>
      </g>
     </g>
    </g>
    <g id="ytick_16">
     <g id="line2d_21">
      <g>
       <use style="fill:#262626;stroke:#262626;stroke-width:0.6;" x="75.843516" xlink:href="#m17627fd1d4" y="77.830098"/>
      </g>
     </g>
    </g>
    <g id="ytick_17">
     <g id="line2d_22">
      <g>
       <use style="fill:#262626;stroke:#262626;stroke-width:0.6;" x="75.843516" xlink:href="#m17627fd1d4" y="70.587842"/>
      </g>
     </g>
    </g>
    <g id="ytick_18">
     <g id="line2d_23">
      <g>
       <use style="fill:#262626;stroke:#262626;stroke-width:0.6;" x="75.843516" xlink:href="#m17627fd1d4" y="64.19972"/>
      </g>
     </g>
    </g>
    <g id="text_9">
     <!-- $RMSE\ $$BCF$ -->
     <g style="fill:#262626;" transform="translate(36.048516 201.74)rotate(-90)scale(0.18 -0.18)">
      <defs>
       <path d="M 25.203125 64.796875 
L 20.21875 38.921875 
L 32.90625 38.921875 
Q 40.375 38.921875 44.984375 43.046875 
Q 49.609375 47.171875 49.609375 53.8125 
Q 49.609375 59.125 46.5 61.953125 
Q 43.40625 64.796875 37.59375 64.796875 
z
M 43.3125 35.015625 
Q 46.4375 34.28125 48.515625 31.390625 
Q 50.59375 28.515625 53.328125 19.921875 
L 59.515625 0 
L 49.125 0 
L 43.40625 18.703125 
Q 41.21875 25.921875 38.328125 28.359375 
Q 35.453125 30.8125 29.5 30.8125 
L 18.609375 30.8125 
L 12.59375 0 
L 2.6875 0 
L 16.890625 72.90625 
L 39.109375 72.90625 
Q 49.21875 72.90625 54.609375 68.328125 
Q 60.015625 63.765625 60.015625 55.171875 
Q 60.015625 47.5625 55.421875 41.984375 
Q 50.828125 36.421875 43.3125 35.015625 
z
" id="DejaVuSans-Oblique-82"/>
       <path d="M 16.890625 72.90625 
L 31.6875 72.90625 
L 40.1875 23.78125 
L 68.40625 72.90625 
L 83.59375 72.90625 
L 69.390625 0 
L 59.8125 0 
L 72.21875 63.921875 
L 43.609375 14.015625 
L 33.984375 14.015625 
L 24.703125 64.109375 
L 12.3125 0 
L 2.6875 0 
z
" id="DejaVuSans-Oblique-77"/>
       <path d="M 60.296875 70.515625 
L 58.40625 60.890625 
Q 53.46875 63.53125 48.609375 64.875 
Q 43.75 66.21875 39.203125 66.21875 
Q 30.375 66.21875 25.140625 62.359375 
Q 19.921875 58.5 19.921875 52.09375 
Q 19.921875 48.578125 21.84375 46.703125 
Q 23.78125 44.828125 31.78125 42.671875 
L 37.703125 41.21875 
Q 47.703125 38.625 51.609375 34.640625 
Q 55.515625 30.671875 55.515625 23.484375 
Q 55.515625 12.453125 46.84375 5.515625 
Q 38.1875 -1.421875 24.03125 -1.421875 
Q 18.21875 -1.421875 12.359375 -0.265625 
Q 6.5 0.875 0.59375 3.21875 
L 2.59375 13.375 
Q 8.015625 10.015625 13.453125 8.296875 
Q 18.890625 6.59375 24.3125 6.59375 
Q 33.546875 6.59375 39.109375 10.6875 
Q 44.671875 14.796875 44.671875 21.390625 
Q 44.671875 25.78125 42.453125 28.046875 
Q 40.234375 30.328125 32.90625 32.171875 
L 27 33.6875 
Q 16.890625 36.328125 13.203125 39.765625 
Q 9.515625 43.21875 9.515625 49.421875 
Q 9.515625 60.296875 17.890625 67.25 
Q 26.265625 74.21875 39.703125 74.21875 
Q 44.921875 74.21875 50.046875 73.28125 
Q 55.171875 72.359375 60.296875 70.515625 
z
" id="DejaVuSans-Oblique-83"/>
       <path d="M 16.890625 72.90625 
L 62.984375 72.90625 
L 61.375 64.59375 
L 25.09375 64.59375 
L 20.90625 43.015625 
L 55.71875 43.015625 
L 54.109375 34.71875 
L 19.28125 34.71875 
L 14.203125 8.296875 
L 51.3125 8.296875 
L 49.703125 0 
L 2.6875 0 
z
" id="DejaVuSans-Oblique-69"/>
       <path d="M 16.890625 72.90625 
L 42.09375 72.90625 
Q 52.34375 72.90625 57.421875 69.09375 
Q 62.5 65.28125 62.5 57.625 
Q 62.5 50.59375 58.125 45.484375 
Q 53.765625 40.375 46.6875 39.3125 
Q 52.734375 37.9375 55.765625 34.078125 
Q 58.796875 30.21875 58.796875 23.78125 
Q 58.796875 12.796875 50.65625 6.390625 
Q 42.53125 0 28.421875 0 
L 2.6875 0 
z
M 19.28125 34.8125 
L 14.109375 8.109375 
L 29.984375 8.109375 
Q 38.921875 8.109375 43.75 12.203125 
Q 48.578125 16.3125 48.578125 23.78125 
Q 48.578125 29.546875 45.375 32.171875 
Q 42.1875 34.8125 35.109375 34.8125 
z
M 25.09375 64.796875 
L 20.796875 42.828125 
L 35.5 42.828125 
Q 43.359375 42.828125 47.78125 46.234375 
Q 52.203125 49.65625 52.203125 55.71875 
Q 52.203125 60.453125 49.21875 62.625 
Q 46.234375 64.796875 39.703125 64.796875 
z
" id="DejaVuSans-Oblique-66"/>
       <path d="M 69.484375 67.28125 
L 67.484375 56.890625 
Q 62.796875 61.625 57.546875 63.921875 
Q 52.296875 66.21875 46.1875 66.21875 
Q 37.84375 66.21875 31.515625 62.203125 
Q 25.203125 58.203125 20.609375 50 
Q 17.671875 44.734375 16.125 38.84375 
Q 14.59375 32.953125 14.59375 27 
Q 14.59375 17.046875 19.75 11.8125 
Q 24.90625 6.59375 34.71875 6.59375 
Q 41.5 6.59375 47.75 8.765625 
Q 54 10.9375 59.90625 15.28125 
L 57.625 3.609375 
Q 51.8125 1.125 45.875 -0.140625 
Q 39.9375 -1.421875 33.984375 -1.421875 
Q 19.96875 -1.421875 12.078125 6.1875 
Q 4.203125 13.8125 4.203125 27.390625 
Q 4.203125 36.078125 7.203125 44.46875 
Q 10.203125 52.875 15.828125 59.8125 
Q 21.78125 67.1875 29.421875 70.703125 
Q 37.0625 74.21875 47.21875 74.21875 
Q 53.46875 74.21875 59.0625 72.484375 
Q 64.65625 70.75 69.484375 67.28125 
z
" id="DejaVuSans-Oblique-67"/>
       <path d="M 16.890625 72.90625 
L 58.6875 72.90625 
L 57.078125 64.59375 
L 25.09375 64.59375 
L 20.90625 43.109375 
L 49.8125 43.109375 
L 48.1875 34.8125 
L 19.28125 34.8125 
L 12.5 0 
L 2.6875 0 
z
" id="DejaVuSans-Oblique-70"/>
      </defs>
      <use transform="translate(0 0.78125)" xlink:href="#DejaVuSans-Oblique-82"/>
      <use transform="translate(69.482422 0.78125)" xlink:href="#DejaVuSans-Oblique-77"/>
      <use transform="translate(155.761719 0.78125)" xlink:href="#DejaVuSans-Oblique-83"/>
      <use transform="translate(219.238281 0.78125)" xlink:href="#DejaVuSans-Oblique-69"/>
      <use transform="translate(314.892253 0.78125)" xlink:href="#DejaVuSans-Oblique-66"/>
      <use transform="translate(383.495769 0.78125)" xlink:href="#DejaVuSans-Oblique-67"/>
      <use transform="translate(453.319988 0.78125)" xlink:href="#DejaVuSans-Oblique-70"/>
     </g>
    </g>
   </g>
   <g id="PolyCollection_1">
    <defs>
     <path d="M 91.050629 -188.012356 
L 91.050629 -155.206638 
L 107.074028 -156.050302 
L 139.120826 -141.407152 
L 235.261222 -151.19122 
L 395.192887 -150.743775 
L 395.192887 -158.829048 
L 395.192887 -158.829048 
L 235.261222 -161.171366 
L 139.120826 -162.362376 
L 107.074028 -172.859072 
L 91.050629 -188.012356 
z
" id="m3edbb410f1" style="stroke:#ff0000;stroke-opacity:0.1;"/>
    </defs>
    <g clip-path="url(#p1f759ccfd3)">
     <use style="fill:#ff0000;fill-opacity:0.1;stroke:#ff0000;stroke-opacity:0.1;" x="0" xlink:href="#m3edbb410f1" y="360"/>
    </g>
   </g>
   <g id="PolyCollection_2">
    <path clip-path="url(#p1f759ccfd3)" d="M 107.074028 33.795455 
L 107.074028 125067.18949 
L 139.120826 277.704545 
L 235.261222 250.737509 
L 395.192887 245.667427 
L 395.192887 223.120756 
L 395.192887 223.120756 
L 235.261222 211.096013 
L 139.120826 186.858414 
L 107.074028 33.795455 
z
" style="fill:#008000;fill-opacity:0.1;stroke:#008000;stroke-opacity:0.1;"/>
   </g>
   <g id="line2d_24">
    <path clip-path="url(#p1f759ccfd3)" d="M 91.050629 185.947035 
L 107.074028 194.896737 
L 139.120826 207.109414 
L 235.261222 203.589471 
L 395.192887 205.063064 
" style="fill:none;stroke:#ff0000;stroke-linecap:round;stroke-width:3;"/>
    <defs>
     <path d="M 0 5 
C 1.326016 5 2.597899 4.473168 3.535534 3.535534 
C 4.473168 2.597899 5 1.326016 5 0 
C 5 -1.326016 4.473168 -2.597899 3.535534 -3.535534 
C 2.597899 -4.473168 1.326016 -5 0 -5 
C -1.326016 -5 -2.597899 -4.473168 -3.535534 -3.535534 
C -4.473168 -2.597899 -5 -1.326016 -5 0 
C -5 1.326016 -4.473168 2.597899 -3.535534 3.535534 
C -2.597899 4.473168 -1.326016 5 0 5 
z
" id="m70a27d1d95" style="stroke:#000000;stroke-width:2;"/>
    </defs>
    <g clip-path="url(#p1f759ccfd3)">
     <use style="fill:#ff0000;stroke:#000000;stroke-width:2;" x="91.050629" xlink:href="#m70a27d1d95" y="185.947035"/>
     <use style="fill:#ff0000;stroke:#000000;stroke-width:2;" x="107.074028" xlink:href="#m70a27d1d95" y="194.896737"/>
     <use style="fill:#ff0000;stroke:#000000;stroke-width:2;" x="139.120826" xlink:href="#m70a27d1d95" y="207.109414"/>
     <use style="fill:#ff0000;stroke:#000000;stroke-width:2;" x="235.261222" xlink:href="#m70a27d1d95" y="203.589471"/>
     <use style="fill:#ff0000;stroke:#000000;stroke-width:2;" x="395.192887" xlink:href="#m70a27d1d95" y="205.063064"/>
    </g>
   </g>
   <g id="line2d_25">
    <path clip-path="url(#p1f759ccfd3)" d="M 107.074028 88.459316 
L 139.120826 215.140458 
L 235.261222 227.372859 
L 395.192887 233.230819 
" style="fill:none;stroke:#008000;stroke-linecap:round;stroke-width:3;"/>
    <defs>
     <path d="M 0 5 
C 1.326016 5 2.597899 4.473168 3.535534 3.535534 
C 4.473168 2.597899 5 1.326016 5 0 
C 5 -1.326016 4.473168 -2.597899 3.535534 -3.535534 
C 2.597899 -4.473168 1.326016 -5 0 -5 
C -1.326016 -5 -2.597899 -4.473168 -3.535534 -3.535534 
C -4.473168 -2.597899 -5 -1.326016 -5 0 
C -5 1.326016 -4.473168 2.597899 -3.535534 3.535534 
C -2.597899 4.473168 -1.326016 5 0 5 
z
" id="m03abe1084f" style="stroke:#000000;stroke-width:2;"/>
    </defs>
    <g clip-path="url(#p1f759ccfd3)">
     <use style="fill:#008000;stroke:#000000;stroke-width:2;" x="107.074028" xlink:href="#m03abe1084f" y="88.459316"/>
     <use style="fill:#008000;stroke:#000000;stroke-width:2;" x="139.120826" xlink:href="#m03abe1084f" y="215.140458"/>
     <use style="fill:#008000;stroke:#000000;stroke-width:2;" x="235.261222" xlink:href="#m03abe1084f" y="227.372859"/>
     <use style="fill:#008000;stroke:#000000;stroke-width:2;" x="395.192887" xlink:href="#m03abe1084f" y="233.230819"/>
    </g>
   </g>
   <g id="patch_3">
    <path d="M 75.843516 289.9 
L 75.843516 21.6 
" style="fill:none;stroke:#262626;stroke-linecap:square;stroke-linejoin:miter;stroke-width:2;"/>
   </g>
   <g id="patch_4">
    <path d="M 410.4 289.9 
L 410.4 21.6 
" style="fill:none;stroke:#262626;stroke-linecap:square;stroke-linejoin:miter;stroke-width:2;"/>
   </g>
   <g id="patch_5">
    <path d="M 75.843516 289.9 
L 410.4 289.9 
" style="fill:none;stroke:#262626;stroke-linecap:square;stroke-linejoin:miter;stroke-width:2;"/>
   </g>
   <g id="patch_6">
    <path d="M 75.843516 21.6 
L 410.4 21.6 
" style="fill:none;stroke:#262626;stroke-linecap:square;stroke-linejoin:miter;stroke-width:2;"/>
   </g>
   <g id="legend_1">
    <g id="patch_7">
     <path d="M 243.9475 80.23 
L 399.2 80.23 
Q 402.4 80.23 402.4 77.03 
L 402.4 32.8 
Q 402.4 29.6 399.2 29.6 
L 243.9475 29.6 
Q 240.7475 29.6 240.7475 32.8 
L 240.7475 77.03 
Q 240.7475 80.23 243.9475 80.23 
z
" style="fill:#ffffff;opacity:0.8;stroke:#cccccc;stroke-linejoin:miter;"/>
    </g>
    <g id="line2d_26">
     <path d="M 247.1475 41.995 
L 279.1475 41.995 
" style="fill:none;stroke:#ff0000;stroke-linecap:round;stroke-width:3;"/>
    </g>
    <g id="line2d_27">
     <g>
      <use style="fill:#ff0000;stroke:#000000;stroke-width:2;" x="263.1475" xlink:href="#m70a27d1d95" y="41.995"/>
     </g>
    </g>
    <g id="text_10">
     <!-- Feature-based -->
     <g style="fill:#262626;" transform="translate(291.9475 47.595)scale(0.16 -0.16)">
      <defs>
       <path d="M 17.53125 61.1875 
L 17.53125 35.59375 
L 55.90625 35.59375 
L 55.90625 27.875 
L 17.53125 27.875 
L 17.53125 0 
L 8.203125 0 
L 8.203125 68.796875 
L 57.078125 68.796875 
L 57.078125 61.1875 
z
" id="LiberationSans-70"/>
       <path d="M 13.484375 24.5625 
Q 13.484375 15.484375 17.234375 10.546875 
Q 21 5.609375 28.21875 5.609375 
Q 33.9375 5.609375 37.375 7.90625 
Q 40.828125 10.203125 42.046875 13.71875 
L 49.75 11.53125 
Q 45.015625 -0.984375 28.21875 -0.984375 
Q 16.5 -0.984375 10.375 6 
Q 4.25 12.984375 4.25 26.765625 
Q 4.25 39.84375 10.375 46.828125 
Q 16.5 53.8125 27.875 53.8125 
Q 51.171875 53.8125 51.171875 25.734375 
L 51.171875 24.5625 
z
M 42.09375 31.296875 
Q 41.359375 39.65625 37.84375 43.484375 
Q 34.328125 47.3125 27.734375 47.3125 
Q 21.34375 47.3125 17.609375 43.03125 
Q 13.875 38.765625 13.578125 31.296875 
z
" id="LiberationSans-101"/>
       <path d="M 20.21875 -0.984375 
Q 12.25 -0.984375 8.25 3.21875 
Q 4.25 7.421875 4.25 14.75 
Q 4.25 22.953125 9.640625 27.34375 
Q 15.046875 31.734375 27.046875 32.03125 
L 38.921875 32.234375 
L 38.921875 35.109375 
Q 38.921875 41.546875 36.1875 44.328125 
Q 33.453125 47.125 27.59375 47.125 
Q 21.6875 47.125 19 45.109375 
Q 16.3125 43.109375 15.765625 38.71875 
L 6.59375 39.546875 
Q 8.84375 53.8125 27.78125 53.8125 
Q 37.75 53.8125 42.765625 49.234375 
Q 47.796875 44.671875 47.796875 36.03125 
L 47.796875 13.28125 
Q 47.796875 9.375 48.828125 7.390625 
Q 49.859375 5.421875 52.734375 5.421875 
Q 54 5.421875 55.609375 5.765625 
L 55.609375 0.296875 
Q 52.296875 -0.484375 48.828125 -0.484375 
Q 43.953125 -0.484375 41.71875 2.078125 
Q 39.5 4.640625 39.203125 10.109375 
L 38.921875 10.109375 
Q 35.546875 4.046875 31.078125 1.53125 
Q 26.609375 -0.984375 20.21875 -0.984375 
z
M 22.21875 5.609375 
Q 27.046875 5.609375 30.8125 7.8125 
Q 34.578125 10.015625 36.75 13.84375 
Q 38.921875 17.671875 38.921875 21.734375 
L 38.921875 26.078125 
L 29.296875 25.875 
Q 23.09375 25.78125 19.890625 24.609375 
Q 16.703125 23.4375 14.984375 21 
Q 13.28125 18.5625 13.28125 14.59375 
Q 13.28125 10.296875 15.59375 7.953125 
Q 17.921875 5.609375 22.21875 5.609375 
z
" id="LiberationSans-97"/>
       <path d="M 27.046875 0.390625 
Q 22.703125 -0.78125 18.171875 -0.78125 
Q 7.625 -0.78125 7.625 11.1875 
L 7.625 46.4375 
L 1.515625 46.4375 
L 1.515625 52.828125 
L 7.953125 52.828125 
L 10.546875 64.65625 
L 16.40625 64.65625 
L 16.40625 52.828125 
L 26.171875 52.828125 
L 26.171875 46.4375 
L 16.40625 46.4375 
L 16.40625 13.09375 
Q 16.40625 9.28125 17.640625 7.734375 
Q 18.890625 6.203125 21.96875 6.203125 
Q 23.734375 6.203125 27.046875 6.890625 
z
" id="LiberationSans-116"/>
       <path d="M 15.328125 52.828125 
L 15.328125 19.34375 
Q 15.328125 14.109375 16.359375 11.21875 
Q 17.390625 8.34375 19.625 7.078125 
Q 21.875 5.8125 26.21875 5.8125 
Q 32.5625 5.8125 36.21875 10.15625 
Q 39.890625 14.5 39.890625 22.21875 
L 39.890625 52.828125 
L 48.6875 52.828125 
L 48.6875 11.28125 
Q 48.6875 2.046875 48.96875 0 
L 40.671875 0 
Q 40.625 0.25 40.578125 1.3125 
Q 40.53125 2.390625 40.453125 3.78125 
Q 40.375 5.171875 40.28125 9.03125 
L 40.140625 9.03125 
Q 37.109375 3.5625 33.125 1.28125 
Q 29.15625 -0.984375 23.25 -0.984375 
Q 14.546875 -0.984375 10.515625 3.34375 
Q 6.5 7.671875 6.5 17.625 
L 6.5 52.828125 
z
" id="LiberationSans-117"/>
       <path d="M 6.9375 0 
L 6.9375 40.53125 
Q 6.9375 46.09375 6.640625 52.828125 
L 14.9375 52.828125 
Q 15.328125 43.84375 15.328125 42.046875 
L 15.53125 42.046875 
Q 17.625 48.828125 20.359375 51.3125 
Q 23.09375 53.8125 28.078125 53.8125 
Q 29.828125 53.8125 31.640625 53.328125 
L 31.640625 45.265625 
Q 29.890625 45.75 26.953125 45.75 
Q 21.484375 45.75 18.59375 41.03125 
Q 15.71875 36.328125 15.71875 27.546875 
L 15.71875 0 
z
" id="LiberationSans-114"/>
       <path d="M 4.4375 22.65625 
L 4.4375 30.46875 
L 28.859375 30.46875 
L 28.859375 22.65625 
z
" id="LiberationSans-45"/>
       <path d="M 51.421875 26.65625 
Q 51.421875 -0.984375 31.984375 -0.984375 
Q 25.984375 -0.984375 22 1.1875 
Q 18.015625 3.375 15.53125 8.203125 
L 15.4375 8.203125 
Q 15.4375 6.6875 15.234375 3.578125 
Q 15.046875 0.484375 14.9375 0 
L 6.453125 0 
Q 6.734375 2.640625 6.734375 10.890625 
L 6.734375 72.46875 
L 15.53125 72.46875 
L 15.53125 51.8125 
Q 15.53125 48.640625 15.328125 44.34375 
L 15.53125 44.34375 
Q 17.96875 49.421875 22 51.609375 
Q 26.03125 53.8125 31.984375 53.8125 
Q 42 53.8125 46.703125 47.0625 
Q 51.421875 40.328125 51.421875 26.65625 
z
M 42.1875 26.375 
Q 42.1875 37.453125 39.25 42.234375 
Q 36.328125 47.015625 29.734375 47.015625 
Q 22.3125 47.015625 18.921875 41.9375 
Q 15.53125 36.859375 15.53125 25.828125 
Q 15.53125 15.4375 18.84375 10.46875 
Q 22.171875 5.515625 29.640625 5.515625 
Q 36.28125 5.515625 39.234375 10.421875 
Q 42.1875 15.328125 42.1875 26.375 
z
" id="LiberationSans-98"/>
       <path d="M 46.390625 14.59375 
Q 46.390625 7.125 40.75 3.0625 
Q 35.109375 -0.984375 24.953125 -0.984375 
Q 15.09375 -0.984375 9.734375 2.265625 
Q 4.390625 5.515625 2.78125 12.40625 
L 10.546875 13.921875 
Q 11.671875 9.671875 15.1875 7.6875 
Q 18.703125 5.71875 24.953125 5.71875 
Q 31.640625 5.71875 34.734375 7.765625 
Q 37.84375 9.8125 37.84375 13.921875 
Q 37.84375 17.046875 35.6875 19 
Q 33.546875 20.953125 28.765625 22.21875 
L 22.46875 23.875 
Q 14.890625 25.828125 11.6875 27.703125 
Q 8.5 29.59375 6.6875 32.28125 
Q 4.890625 34.96875 4.890625 38.875 
Q 4.890625 46.09375 10.03125 49.875 
Q 15.1875 53.65625 25.046875 53.65625 
Q 33.796875 53.65625 38.9375 50.578125 
Q 44.09375 47.515625 45.453125 40.71875 
L 37.546875 39.75 
Q 36.8125 43.265625 33.609375 45.140625 
Q 30.421875 47.015625 25.046875 47.015625 
Q 19.09375 47.015625 16.25 45.203125 
Q 13.421875 43.40625 13.421875 39.75 
Q 13.421875 37.5 14.59375 36.03125 
Q 15.765625 34.578125 18.0625 33.546875 
Q 20.359375 32.515625 27.734375 30.71875 
Q 34.71875 28.953125 37.796875 27.46875 
Q 40.875 25.984375 42.65625 24.171875 
Q 44.4375 22.359375 45.40625 19.984375 
Q 46.390625 17.625 46.390625 14.59375 
z
" id="LiberationSans-115"/>
       <path d="M 40.09375 8.5 
Q 37.640625 3.421875 33.609375 1.21875 
Q 29.59375 -0.984375 23.640625 -0.984375 
Q 13.625 -0.984375 8.90625 5.75 
Q 4.203125 12.5 4.203125 26.171875 
Q 4.203125 53.8125 23.640625 53.8125 
Q 29.640625 53.8125 33.640625 51.609375 
Q 37.640625 49.421875 40.09375 44.625 
L 40.1875 44.625 
L 40.09375 50.53125 
L 40.09375 72.46875 
L 48.875 72.46875 
L 48.875 10.890625 
Q 48.875 2.640625 49.171875 0 
L 40.765625 0 
Q 40.625 0.78125 40.453125 3.609375 
Q 40.28125 6.453125 40.28125 8.5 
z
M 13.421875 26.46875 
Q 13.421875 15.375 16.34375 10.59375 
Q 19.28125 5.8125 25.875 5.8125 
Q 33.34375 5.8125 36.71875 10.984375 
Q 40.09375 16.15625 40.09375 27.046875 
Q 40.09375 37.546875 36.71875 42.421875 
Q 33.34375 47.3125 25.984375 47.3125 
Q 19.34375 47.3125 16.375 42.40625 
Q 13.421875 37.5 13.421875 26.46875 
z
" id="LiberationSans-100"/>
      </defs>
      <use xlink:href="#LiberationSans-70"/>
      <use x="61.083984" xlink:href="#LiberationSans-101"/>
      <use x="116.699219" xlink:href="#LiberationSans-97"/>
      <use x="172.314453" xlink:href="#LiberationSans-116"/>
      <use x="200.097656" xlink:href="#LiberationSans-117"/>
      <use x="255.712891" xlink:href="#LiberationSans-114"/>
      <use x="289.013672" xlink:href="#LiberationSans-101"/>
      <use x="344.628906" xlink:href="#LiberationSans-45"/>
      <use x="377.929688" xlink:href="#LiberationSans-98"/>
      <use x="433.544922" xlink:href="#LiberationSans-97"/>
      <use x="489.160156" xlink:href="#LiberationSans-115"/>
      <use x="539.160156" xlink:href="#LiberationSans-101"/>
      <use x="594.775391" xlink:href="#LiberationSans-100"/>
     </g>
    </g>
    <g id="line2d_28">
     <path d="M 247.1475 64.91 
L 279.1475 64.91 
" style="fill:none;stroke:#008000;stroke-linecap:round;stroke-width:3;"/>
    </g>
    <g id="line2d_29">
     <g>
      <use style="fill:#008000;stroke:#000000;stroke-width:2;" x="263.1475" xlink:href="#m03abe1084f" y="64.91"/>
     </g>
    </g>
    <g id="text_11">
     <!-- O-GNN -->
     <g style="fill:#262626;" transform="translate(291.9475 70.51)scale(0.16 -0.16)">
      <defs>
       <path d="M 73 34.71875 
Q 73 23.921875 68.875 15.8125 
Q 64.75 7.71875 57.03125 3.359375 
Q 49.3125 -0.984375 38.8125 -0.984375 
Q 28.21875 -0.984375 20.53125 3.3125 
Q 12.84375 7.625 8.78125 15.75 
Q 4.734375 23.875 4.734375 34.71875 
Q 4.734375 51.21875 13.765625 60.515625 
Q 22.796875 69.828125 38.921875 69.828125 
Q 49.421875 69.828125 57.125 65.640625 
Q 64.84375 61.46875 68.921875 53.515625 
Q 73 45.5625 73 34.71875 
z
M 63.484375 34.71875 
Q 63.484375 47.5625 57.0625 54.875 
Q 50.640625 62.203125 38.921875 62.203125 
Q 27.09375 62.203125 20.640625 54.96875 
Q 14.203125 47.75 14.203125 34.71875 
Q 14.203125 21.78125 20.71875 14.1875 
Q 27.25 6.59375 38.8125 6.59375 
Q 50.734375 6.59375 57.109375 13.9375 
Q 63.484375 21.296875 63.484375 34.71875 
z
" id="LiberationSans-79"/>
       <path d="M 5.03125 34.71875 
Q 5.03125 51.46875 14.015625 60.640625 
Q 23 69.828125 39.265625 69.828125 
Q 50.6875 69.828125 57.8125 65.96875 
Q 64.9375 62.109375 68.796875 53.609375 
L 59.90625 50.984375 
Q 56.984375 56.84375 51.828125 59.515625 
Q 46.6875 62.203125 39.015625 62.203125 
Q 27.09375 62.203125 20.796875 55 
Q 14.5 47.796875 14.5 34.71875 
Q 14.5 21.6875 21.1875 14.140625 
Q 27.875 6.59375 39.703125 6.59375 
Q 46.4375 6.59375 52.265625 8.640625 
Q 58.109375 10.6875 61.71875 14.203125 
L 61.71875 26.609375 
L 41.15625 26.609375 
L 41.15625 34.421875 
L 70.3125 34.421875 
L 70.3125 10.6875 
Q 64.84375 5.125 56.90625 2.0625 
Q 48.96875 -0.984375 39.703125 -0.984375 
Q 28.90625 -0.984375 21.09375 3.3125 
Q 13.28125 7.625 9.15625 15.703125 
Q 5.03125 23.78125 5.03125 34.71875 
z
" id="LiberationSans-71"/>
       <path d="M 52.828125 0 
L 16.015625 58.59375 
L 16.265625 53.859375 
L 16.5 45.703125 
L 16.5 0 
L 8.203125 0 
L 8.203125 68.796875 
L 19.046875 68.796875 
L 56.25 9.8125 
Q 55.671875 19.390625 55.671875 23.6875 
L 55.671875 68.796875 
L 64.0625 68.796875 
L 64.0625 0 
z
" id="LiberationSans-78"/>
      </defs>
      <use xlink:href="#LiberationSans-79"/>
      <use x="77.783203" xlink:href="#LiberationSans-45"/>
      <use x="111.083984" xlink:href="#LiberationSans-71"/>
      <use x="188.867188" xlink:href="#LiberationSans-78"/>
      <use x="261.083984" xlink:href="#LiberationSans-78"/>
     </g>
    </g>
   </g>
  </g>
 </g>
 <defs>
  <clipPath id="p1f759ccfd3">
   <rect height="268.3" width="334.556484" x="75.843516" y="21.6"/>
  </clipPath>
 </defs>
</svg>
